<svg width="140" height="33" fill="none" xmlns="http://www.w3.org/2000/svg"><g clip-path="url(#a)"><path d="M19.54 5.808a6.979 6.979 0 0 1 6.97 6.97v6.696c0 3.59-2.697 6.642-6.27 6.992-4.156.409-7.671-2.864-7.671-6.938v-6.75a6.979 6.979 0 0 1 6.97-6.97Zm0-5.808C12.476 0 6.755 5.722 6.755 12.784v6.668c0 6.766 5.237 12.434 11.992 12.838 7.417.447 13.575-5.436 13.575-12.762v-6.744C32.323 5.721 26.6 0 19.539 0Z" fill="#161616"/><path d="M6.406.01.027 6.385v8.8L6.38 8.833v23.473h6.244V.011H6.406Z" fill="#00B7FF"/><path d="M40.068 22.025c.102 1.755.63 3.176 1.571 4.253.942 1.076 2.202 1.614 3.779 1.614 1.012 0 1.921-.237 2.729-.721.802-.48 1.33-1.114 1.572-1.916h6.507c-.737 2.46-2.03 4.349-3.886 5.678-1.857 1.33-4.059 1.992-6.61 1.992-7.977 0-11.965-4.338-11.965-13.015 0-3.709.995-6.664 2.992-8.87 1.997-2.207 4.845-3.305 8.553-3.305 7.487 0 11.228 4.758 11.228 14.29h-16.47Zm9.974-3.983c-.07-1.781-.587-3.106-1.55-3.961-.964-.856-2.073-1.287-3.332-1.287-1.298 0-2.396.458-3.305 1.367-.91.91-1.438 2.202-1.572 3.881h9.758ZM73.768 16.912c-.177-1.227-.673-2.19-1.496-2.89-.824-.7-1.83-1.05-3.025-1.05-.668 0-1.297.113-1.895.339-.597.226-1.114.614-1.55 1.157-.436.544-.786 1.26-1.05 2.153-.263.894-.392 1.992-.392 3.284 0 2.626.473 4.575 1.42 5.834.948 1.26 2.035 1.895 3.257 1.895 1.227 0 2.277-.34 3.154-1.023.877-.683 1.383-1.674 1.523-2.97h6.362c-.177 1.399-.57 2.674-1.184 3.81a9.99 9.99 0 0 1-2.39 2.944 10.65 10.65 0 0 1-3.364 1.895c-1.26.436-2.61.657-4.047.657-1.647 0-3.138-.275-4.473-.813a9.715 9.715 0 0 1-3.488-2.417c-.99-1.071-1.75-2.411-2.277-4.02-.533-1.61-.796-3.489-.796-5.626 0-2.136.274-3.988.823-5.544.55-1.56 1.308-2.836 2.277-3.837.974-1.001 2.153-1.744 3.542-2.234 1.388-.49 2.922-.737 4.607-.737 3.187 0 5.738.823 7.649 2.47 1.91 1.647 2.97 3.892 3.18 6.728h-6.367v-.005ZM87.407 22.025c.103 1.755.63 3.176 1.572 4.253.942 1.076 2.202 1.614 3.779 1.614 1.012 0 1.921-.237 2.729-.721.802-.48 1.33-1.114 1.571-1.916h6.508c-.738 2.46-2.029 4.349-3.886 5.678-1.857 1.33-4.059 1.992-6.61 1.992-7.977 0-11.965-4.338-11.965-13.015 0-3.709.995-6.664 2.992-8.87 1.997-2.207 4.845-3.305 8.553-3.305 7.487 0 11.228 4.758 11.228 14.29h-16.47Zm9.969-3.983c-.07-1.781-.587-3.106-1.55-3.961-.964-.856-2.072-1.287-3.332-1.287-1.297 0-2.395.458-3.305 1.367-.91.91-1.437 2.202-1.572 3.881h9.759ZM111.715 11.874c.808-1.577 1.776-2.66 2.918-3.257 1.135-.597 2.497-.893 4.069-.893 1.609 0 2.896.29 3.859.866.964.576 1.9 1.567 2.81 2.966 1.259-2.556 3.412-3.832 6.459-3.832 1.189 0 2.293.21 3.31.63 1.017.42 1.884.99 2.6 1.706a7.702 7.702 0 0 1 1.679 2.546 8.05 8.05 0 0 1 .603 3.1v16.6h-6.19V17.822c0-1.47-.339-2.649-1.023-3.542-.678-.894-1.582-1.34-2.696-1.34-1.152 0-2.116.479-2.88 1.442-.77.964-1.152 2.18-1.152 3.65v14.274h-6.297V17.924c0-1.922-.286-3.208-.862-3.86-.575-.645-1.544-.968-2.906-.968-2.584 0-3.876 1.555-3.876 4.672v14.538h-6.351V8.354h5.921v3.52h.005Z" fill="#161616"/></g><defs><clipPath id="a"><path fill="#fff" d="M0 0h140v32.941H0z"/></clipPath></defs></svg>