<svg width="236" height="128" viewBox="0 0 236 128" fill="none" xmlns="http://www.w3.org/2000/svg">
<g clip-path="url(#clip0_523_45)">
<path d="M153.341 63.4048C142.74 59.2355 137.604 67.4256 137.604 67.4256C137.604 67.4256 140.221 62.7193 145.813 61.0892C151.409 59.4595 153.937 63.5308 153.341 63.4048Z" fill="black"/>
<path d="M140.799 2.07312C157.924 13.9021 154.012 36.1277 154.012 36.1277C154.012 36.1277 157.857 25.7116 153.661 13.6756C149.468 1.64178 139.975 1.24645 140.799 2.07312Z" fill="black"/>
<path d="M163.131 1.75426C152.688 6.30373 154.845 15.7272 154.845 15.7272C154.845 15.7272 153.372 10.546 156.172 5.4392C158.976 0.332401 163.641 1.42506 163.131 1.75426Z" fill="black"/>
<path d="M140.812 17.936C158.471 30.5371 149.399 50.2141 149.399 50.2141C149.399 50.2141 155.819 39.7944 152.208 28.1745C148.596 16.5564 139.98 17.0892 140.812 17.936Z" fill="black"/>
<path d="M143.996 34.6033C153.471 50.5309 139.519 62.7148 139.519 62.7148C139.519 62.7148 148.297 55.2773 149.473 45.4612C150.645 35.6445 143.635 33.671 143.996 34.6033Z" fill="black"/>
<path d="M171.656 43.7048C154.079 37.8261 148.511 54.2808 148.511 54.2808C148.511 54.2808 152.004 44.4283 161.348 41.1975C170.692 37.9688 172.643 43.8579 171.656 43.7048Z" fill="black"/>
<path d="M175.888 15.1277C156.136 21.6917 153.671 44.1251 153.671 44.1251C153.671 44.1251 154.284 32.0064 161.677 21.6256C169.073 11.2449 176.908 14.5683 175.888 15.1277Z" fill="black"/>
<path d="M140.791 47.1641C142.241 63.6387 125.041 72.6173 125.041 72.6173C125.041 72.6173 135.008 68.6016 140.403 59.2012C145.795 49.8007 140.883 46.2199 140.791 47.1641Z" fill="black"/>
<path d="M94.3439 2.00542C77.219 13.8336 81.1309 36.0585 81.1309 36.0585C81.1309 36.0585 77.2841 25.6445 81.4778 13.6085C85.6737 1.57367 95.169 1.18035 94.3439 2.00542Z" fill="black"/>
<path d="M72.0114 1.68825C82.4557 6.23612 80.2978 15.6596 80.2978 15.6596C80.2978 15.6596 81.774 10.4778 78.9713 5.37105C76.1666 0.263713 71.5005 1.35598 72.0114 1.68825Z" fill="black"/>
<path d="M94.3313 17.8672C76.6725 30.4698 85.7444 50.1463 85.7444 50.1463C85.7444 50.1463 79.3236 39.7271 82.9351 28.1078C86.5449 16.4896 95.1616 17.0219 94.3313 17.8672Z" fill="black"/>
<path d="M91.1487 34.537C81.6722 50.464 95.6258 62.6459 95.6258 62.6459C95.6258 62.6459 86.8435 55.211 85.6706 45.3938C84.4976 35.5766 91.5082 33.6036 91.1487 34.537Z" fill="black"/>
<path d="M63.4879 43.6376C81.0635 37.7579 86.6316 54.2136 86.6316 54.2136C86.6316 54.2136 83.139 44.36 73.7942 41.1293C64.451 37.9016 62.5004 43.7917 63.4879 43.6376Z" fill="black"/>
<path d="M59.2575 15.0611C79.0081 21.624 81.4715 44.0579 81.4715 44.0579C81.4715 44.0579 80.8601 31.9381 73.4647 21.5584C66.0695 11.1783 58.2346 14.5001 59.2575 15.0611Z" fill="black"/>
<path d="M82.3694 62.7705C92.9684 58.6033 98.1069 66.7929 98.1069 66.7929C98.1069 66.7929 95.4881 62.0841 89.8949 60.4549C84.3022 58.8252 81.7736 62.8976 82.3694 62.7705Z" fill="black"/>
<path d="M94.3524 47.095C92.8997 63.5716 110.105 72.5497 110.105 72.5497C110.105 72.5497 100.135 68.535 94.742 59.1346C89.3467 49.7346 94.2612 46.1517 94.3524 47.095Z" fill="black"/>
<path d="M118.768 72.6819C118.768 73.3829 118.201 73.9516 117.502 73.9516C116.803 73.9516 116.234 73.3829 116.234 72.6819C116.234 71.9829 116.803 71.4141 117.502 71.4141C118.201 71.4141 118.768 71.9829 118.768 72.6819Z" fill="black"/>
<path d="M123.891 1.1146L124.003 0.990202C125.164 2.061 125.534 3.6178 125.534 5.1646C125.534 7.19433 124.899 9.23487 124.475 10.2714C124.33 10.6203 124.221 10.8427 124.135 10.9568C123.123 12.2463 122.867 14.0083 122.869 15.8802C122.869 17.625 123.089 19.4558 123.089 21.075C123.089 21.3219 123.083 21.563 123.072 21.7979C122.919 24.7312 121.447 27.6692 120.278 28.9902C119.881 29.4282 119.541 29.7068 119.185 29.7187C119.153 29.7187 119.125 29.7162 119.096 29.712C119.013 29.6954 118.972 29.637 118.955 29.6026C118.937 29.5656 118.928 29.537 118.922 29.5058C118.911 29.4432 118.909 29.3739 118.909 29.2875C118.909 28.399 119.312 25.5396 119.433 22.4302C119.445 22.1151 119.451 21.8162 119.451 21.5348C119.451 19.1282 119.02 17.9506 118.581 17.3938C118.144 16.8411 117.721 16.8578 117.571 16.8526C117.421 16.8578 116.999 16.8411 116.559 17.3938C116.125 17.9506 115.69 19.1282 115.692 21.5348C115.692 21.8162 115.698 22.1151 115.71 22.4302C115.83 25.5396 116.234 28.399 116.234 29.2875C116.23 29.4198 116.235 29.499 116.19 29.6006C116.174 29.6344 116.132 29.6954 116.046 29.712C116.016 29.7162 115.987 29.7187 115.958 29.7187C115.604 29.7068 115.263 29.4282 114.867 28.9902C114.475 28.55 114.053 27.9302 113.656 27.1902C112.865 25.7115 112.17 23.7526 112.071 21.7984C112.058 21.563 112.054 21.3219 112.054 21.075C112.054 19.4558 112.275 17.625 112.275 15.8802C112.275 14.0083 112.02 12.2484 111.007 10.9568C110.921 10.8427 110.813 10.6203 110.669 10.2714C110.527 9.92553 110.36 9.46781 110.206 8.93861C109.891 7.87501 109.608 6.51873 109.608 5.1646C109.608 3.6178 109.981 2.061 111.138 0.990202C111.913 0.272469 112.435 -0.00459362 112.953 -0.00512695C114.028 0.0235397 114.698 1.05727 117.571 1.05634C120.442 1.05727 121.115 0.0235397 122.191 -0.00512695C122.706 -0.00459362 123.229 0.272469 124.003 0.990202L123.891 1.1146Z" fill="black"/>
<path d="M5.35417 103.217L1.64531 93.9568C1.3151 93.1015 1.0099 92.9687 0 92.9687V92.3552C1.09635 92.3776 1.75469 92.423 2.36927 92.423C3.15833 92.423 4.21355 92.3776 5.30989 92.3552V92.9687C4.03855 92.9687 3.64323 92.9906 3.64323 93.4974C3.64323 93.7364 3.94896 94.3735 4.21355 95.0104L6.49375 100.735L8.88593 94.5506C9.01719 94.2208 9.12708 93.9348 9.12708 93.6287C9.12708 93.1015 8.62292 92.9687 7.54896 92.9687V92.3552C8.29375 92.3776 8.9526 92.423 9.80573 92.423C10.313 92.423 10.8828 92.3776 11.6302 92.3552V92.9687C10.5333 92.9687 10.4026 93.2968 9.89479 94.5948L6.45208 103.217H5.35417Z" fill="black"/>
<path d="M14.5677 94.1782C14.5677 93.013 14.0421 92.9687 12.5938 92.9687V92.3552C13.3844 92.3776 14.3495 92.423 15.4912 92.423C16.5443 92.423 17.3125 92.3776 18.5193 92.3552V92.9687C16.8948 92.9687 16.5443 92.9906 16.5443 94.1782V101.025C16.5443 102.341 16.7208 102.493 18.5193 102.493V103.108C17.5527 103.087 16.588 103.043 15.6005 103.043C14.5901 103.043 13.6035 103.087 12.5938 103.108V102.493C14.2167 102.493 14.5677 102.341 14.5677 101.025V94.1782Z" fill="black"/>
<path d="M19.7686 102.493C21.3482 102.493 21.7425 102.447 21.7425 101.153V94.2651C21.7425 93.1235 21.5681 92.9687 19.7686 92.9687V92.3552C20.7123 92.3552 21.6118 92.423 22.6638 92.423C23.8066 92.423 25.0785 92.3552 26.241 92.3552C28.1935 92.3552 29.6425 92.9031 29.6425 94.7239C29.6425 96.7682 27.7566 97.2916 26.7009 97.687L30.0582 101.792C30.4971 102.319 30.6738 102.493 31.3545 102.493V103.043H28.6321L24.2462 97.7328L24.3331 97.3812C24.5743 97.4031 24.8149 97.4244 25.1227 97.4244C26.4399 97.4244 27.4477 96.4568 27.4477 95.1416C27.4477 93.7146 26.7009 93.0807 25.1227 93.0807C24.6405 93.0807 24.1138 93.1235 23.7159 93.2968V101.417C23.7159 102.447 23.9821 102.493 25.6482 102.493V103.108C25.1227 103.087 24.355 103.043 22.7529 103.043C21.7638 103.043 20.7769 103.087 19.7686 103.108V102.493Z" fill="black"/>
<path d="M33.9855 102.493C35.523 102.493 35.8719 102.341 35.8719 101.285V93.2552H34.7323C32.823 93.2552 32.6271 93.5192 32.5807 94.3515L32.5386 95.2302H31.9246L31.8359 92.3552C32.8891 92.423 34.4693 92.423 36.8381 92.423C39.2083 92.423 40.7881 92.423 41.8413 92.3552L41.7531 95.2302H41.1391L41.0959 94.3515C41.0517 93.5192 40.8542 93.2552 38.9454 93.2552H37.8485V101.285C37.8485 102.251 38.1558 102.493 39.6917 102.493V103.108C38.7913 103.087 37.8927 103.043 36.9683 103.043C35.9823 103.043 34.973 103.087 33.9855 103.108V102.493Z" fill="black"/>
<path d="M46.6684 99.1572C46.6684 101.043 47.3709 102.209 49.6324 102.209C51.5413 102.209 52.6146 101.354 52.6146 99.114V94.3735C52.6146 93.1692 52.4616 92.9687 50.7517 92.9687V92.3552C51.5413 92.3776 52.3304 92.423 53.0974 92.423C54.0641 92.423 54.7861 92.3776 55.3589 92.3552V92.9687C53.7788 92.9687 53.4933 93.1235 53.4933 94.2891V99.0063C53.4933 101.264 52.8564 103.349 49.1698 103.349C45.5282 103.349 44.6949 101.855 44.6949 99.2031V94.0662C44.6949 93.0807 44.1246 92.9687 42.8506 92.9687V92.3552C43.7944 92.3776 44.7392 92.423 45.66 92.423C46.3616 92.423 47.0641 92.3776 48.3356 92.3552V92.9244C46.9318 92.9687 46.6684 93.2135 46.6684 93.8474V99.1572Z" fill="black"/>
<path d="M58.3643 94.4845C58.3643 93.0365 57.9686 92.9464 56.3232 92.9464V92.3553C57.003 92.3777 57.6159 92.4231 58.3858 92.4231C59.1976 92.4231 59.9872 92.3777 60.7774 92.3335C61.5675 92.2892 62.3779 92.2449 63.1675 92.2449C64.0462 92.2449 65.1222 92.3127 65.8248 92.4231C65.6924 93.1693 65.605 94.0012 65.5607 95.0559H64.9462C64.8826 94.2209 64.8602 93.7605 64.7263 93.2969C63.8727 93.1469 62.8164 93.0808 61.7639 93.0808C61.2383 93.0808 60.7774 93.1469 60.3826 93.2136C60.3175 94.3516 60.3388 95.7797 60.3388 97.0521C60.8424 97.074 61.4352 97.0964 62.444 97.0964C63.4972 97.0964 63.6743 96.8569 63.6743 95.6261H64.332C64.3096 96.2173 64.2878 96.896 64.2878 97.4907C64.2878 98.1731 64.3096 98.9168 64.332 99.5308H63.6743C63.6743 98.1512 63.4972 97.8829 61.5883 97.8829C61.041 97.8829 60.6899 97.9048 60.3388 97.9297C60.3388 99.6835 60.3596 101.131 60.4258 102.165C61.0191 102.209 61.6107 102.251 62.3566 102.251C63.3227 102.251 64.2878 102.142 64.8154 101.988C65.0347 101.396 65.1878 100.735 65.2972 100.012H65.8675C65.8462 101.131 65.7795 102.142 65.6924 102.997C64.8154 103.087 63.7383 103.108 62.7076 103.108C61.4352 103.108 60.3596 103.043 59.3082 103.043C58.3196 103.043 57.5519 103.087 56.4763 103.108V102.493C58.2326 102.493 58.3643 102.229 58.3643 100.672V94.4845Z" fill="black"/>
<path d="M69.2031 94.0011C69.2031 92.9906 68.8515 92.9687 67.2285 92.9687V92.3552C68.2364 92.3776 69.0259 92.423 70.0359 92.423C70.7821 92.423 71.8578 92.3776 73.065 92.3552V92.9687C71.6603 92.9687 71.1791 92.9906 71.1791 94.3282V100.144C71.1791 100.892 71.1977 101.481 71.2644 102.187C71.7056 102.209 72.1436 102.229 72.7572 102.229C74.1176 102.229 75.3468 102.142 75.9598 101.923L76.3988 100.144H77.0572C76.8592 101.087 76.7504 102.009 76.6848 103.043C75.9597 103.087 74.951 103.108 73.9868 103.108C71.8796 103.108 71.2421 103.043 70.2119 103.043C69.29 103.043 68.6973 103.087 67.9296 103.108V102.493C68.8941 102.341 69.2031 102.209 69.2031 100.758V94.0011Z" fill="black"/>
<path d="M80.1738 94.0011C80.1738 92.9906 79.8216 92.9687 78.1982 92.9687V92.3552C79.2076 92.3776 79.9972 92.423 81.0076 92.423C81.753 92.423 82.8284 92.3776 84.0347 92.3552V92.9687C82.6306 92.9687 82.1467 92.9906 82.1467 94.3282V100.144C82.1467 100.892 82.1696 101.481 82.2363 102.187C82.6748 102.209 83.1128 102.229 83.7268 102.229C85.0894 102.229 86.318 102.142 86.931 101.923L87.37 100.144H88.029C87.8315 101.087 87.7211 102.009 87.655 103.043C86.931 103.087 85.9222 103.108 84.9576 103.108C82.8498 103.108 82.2139 103.043 81.182 103.043C80.2607 103.043 79.6691 103.087 78.9014 103.108V102.493C79.867 102.341 80.1738 102.209 80.1738 100.758V94.0011Z" fill="black"/>
<path d="M98.7367 102.12C99.3508 102.165 99.8117 102.209 100.183 102.209C103.3 102.209 104.441 100.037 104.441 97.534C104.441 94.5064 102.642 93.1693 100.403 93.1693C99.7664 93.1693 99.1101 93.2329 98.7805 93.2969C98.7576 93.8475 98.7367 94.2209 98.7367 94.7693V102.12ZM96.7587 94.2652C96.7587 93.3423 96.4091 92.9907 95.0049 92.9907V92.3777C95.9273 92.4231 96.7587 92.4231 97.7273 92.4231C98.7576 92.4231 99.7008 92.3777 100.819 92.3777C104.66 92.3777 106.635 94.2209 106.635 97.1173C106.635 99.3788 105.231 103.087 100.535 103.087C99.6128 103.087 98.6467 103.043 97.7481 103.043C97.0451 103.043 96.3435 103.061 95.7081 103.087V102.647C96.4748 102.341 96.7587 102.009 96.7587 100.563V94.2652Z" fill="black"/>
<path d="M110.165 94.4845C110.165 93.0365 109.769 92.9464 108.125 92.9464V92.3553C108.805 92.3777 109.42 92.4231 110.188 92.4231C111.002 92.4231 111.791 92.3777 112.581 92.3335C113.37 92.2892 114.182 92.2449 114.971 92.2449C115.848 92.2449 116.925 92.3127 117.627 92.4231C117.494 93.1693 117.407 94.0012 117.363 95.0559H116.749C116.683 94.2209 116.661 93.7605 116.529 93.2969C115.674 93.1469 114.62 93.0808 113.569 93.0808C113.041 93.0808 112.581 93.1469 112.185 93.2136C112.12 94.3516 112.142 95.7797 112.142 97.0521C112.645 97.074 113.24 97.0964 114.247 97.0964C115.302 97.0964 115.476 96.8569 115.476 95.6261H116.135C116.113 96.2173 116.091 96.896 116.091 97.4907C116.091 98.1731 116.113 98.9168 116.135 99.5308H115.476C115.476 98.1512 115.302 97.8829 113.391 97.8829C112.844 97.8829 112.493 97.9048 112.142 97.9297C112.142 99.6835 112.165 101.131 112.229 102.165C112.821 102.209 113.412 102.251 114.158 102.251C115.125 102.251 116.091 102.142 116.617 101.988C116.835 101.396 116.989 100.735 117.099 100.012H117.67C117.649 101.131 117.58 102.142 117.494 102.997C116.617 103.087 115.542 103.108 114.511 103.108C113.24 103.108 112.165 103.043 111.11 103.043C110.122 103.043 109.354 103.087 108.28 103.108V102.493C110.034 102.493 110.165 102.229 110.165 100.672V94.4845Z" fill="black"/>
<path d="M121.136 93.8916C121.136 93.1911 120.677 92.9906 119.208 92.9687V92.3552C119.777 92.3776 120.305 92.423 121.005 92.423C121.575 92.423 122.256 92.3776 122.848 92.3552C125.086 95.2719 127.521 98.061 129.783 100.936H129.828V94.0886C129.828 93.0807 129.191 92.9687 127.808 92.9687V92.3552C128.708 92.3776 129.563 92.423 130.263 92.423C131.098 92.423 131.889 92.3776 132.722 92.3552V92.9687C131.053 92.9687 130.703 93.1235 130.703 94.6599V101.025C130.703 101.901 130.792 102.625 130.834 103.349L129.081 103.13L122.06 94.6172H122.015V101.285C122.015 102.384 122.234 102.493 123.901 102.493V103.108C123.091 103.087 122.256 103.043 121.422 103.043C120.656 103.043 119.864 103.087 119.118 103.108V102.493C120.807 102.493 121.136 102.251 121.136 101.153V93.8916Z" fill="black"/>
<path d="M135.772 102.493C137.305 102.493 137.66 102.341 137.66 101.285V93.2552H136.519C134.608 93.2552 134.411 93.5192 134.369 94.3515L134.324 95.2302H133.711L133.621 92.3552C134.675 92.423 136.252 92.423 138.624 92.423C140.995 92.423 142.575 92.423 143.628 92.3552L143.54 95.2302H142.924L142.883 94.3515C142.837 93.5192 142.639 93.2552 140.731 93.2552H139.633V101.285C139.633 102.251 139.94 102.493 141.477 102.493V103.108C140.58 103.087 139.679 103.043 138.757 103.043C137.773 103.043 136.759 103.087 135.772 103.108V102.493Z" fill="black"/>
<path d="M147.708 98.7848C148.28 98.8072 148.849 98.8292 149.485 98.8292C150.187 98.8292 150.759 98.8072 151.48 98.7848L149.64 94.4844L147.708 98.7848ZM150.583 92.1172L154.399 100.781C155.081 102.405 155.541 102.493 156.372 102.493V103.108C156.025 103.087 154.705 103.043 153.764 103.043C152.843 103.043 152.031 103.087 151.063 103.108V102.493C152.361 102.493 152.688 102.319 152.688 101.901C152.688 101.417 152.099 100.321 151.813 99.7058C151.063 99.6834 150.319 99.6615 149.551 99.6615C148.827 99.6615 148.08 99.6834 147.333 99.7058C147.139 100.167 146.588 100.892 146.588 101.702C146.588 102.319 147.092 102.493 148.213 102.493V103.108C147.489 103.087 146.721 103.043 145.931 103.043C145.273 103.043 144.767 103.087 143.779 103.108V102.493C144.767 102.493 145.119 102.362 146.104 100.123L149.747 92.1172H150.583Z" fill="black"/>
<path d="M159.207 94.0011C159.207 92.9906 158.856 92.9687 157.229 92.9687V92.3552C158.239 92.3776 159.029 92.423 160.039 92.423C160.784 92.423 161.859 92.3776 163.068 92.3552V92.9687C161.664 92.9687 161.18 92.9906 161.18 94.3282V100.144C161.18 100.892 161.203 101.481 161.268 102.187C161.704 102.209 162.149 102.229 162.757 102.229C164.12 102.229 165.348 102.142 165.965 101.923L166.4 100.144H167.057C166.863 101.087 166.753 102.009 166.691 103.043C165.965 103.087 164.952 103.108 163.988 103.108C161.883 103.108 161.247 103.043 160.216 103.043C159.291 103.043 158.7 103.087 157.932 103.108V102.493C158.895 102.341 159.207 102.209 159.207 100.758V94.0011Z" fill="black"/>
<path d="M169.493 102.493C171.031 102.493 171.383 102.341 171.383 101.285V93.2552H170.24C168.329 93.2552 168.133 93.5192 168.091 94.3515L168.051 95.2302H167.432L167.343 92.3552C168.396 92.423 169.977 92.423 172.351 92.423C174.716 92.423 176.296 92.423 177.349 92.3552L177.265 95.2302H176.652L176.608 94.3515C176.563 93.5192 176.364 93.2552 174.452 93.2552H173.355V101.285C173.355 102.251 173.667 102.493 175.204 102.493V103.108C174.301 103.087 173.399 103.043 172.479 103.043C171.493 103.043 170.485 103.087 169.493 103.108V102.493Z" fill="black"/>
<path d="M180.469 94.4845C180.469 93.0365 180.073 92.9464 178.425 92.9464V92.3553C179.105 92.3777 179.723 92.4231 180.492 92.4231C181.3 92.4231 182.091 92.3777 182.881 92.3335C183.667 92.2892 184.481 92.2449 185.273 92.2449C186.148 92.2449 187.223 92.3127 187.925 92.4231C187.791 93.1693 187.713 94.0012 187.663 95.0559H187.049C186.984 94.2209 186.961 93.7605 186.828 93.2969C185.975 93.1469 184.92 93.0808 183.868 93.0808C183.339 93.0808 182.881 93.1469 182.485 93.2136C182.42 94.3516 182.443 95.7797 182.443 97.0521C182.948 97.074 183.54 97.0964 184.548 97.0964C185.601 97.0964 185.775 96.8569 185.775 95.6261H186.433C186.409 96.2173 186.392 96.896 186.392 97.4907C186.392 98.1731 186.409 98.9168 186.433 99.5308H185.775C185.775 98.1512 185.601 97.8829 183.691 97.8829C183.144 97.8829 182.793 97.9048 182.443 97.9297C182.443 99.6835 182.463 101.131 182.531 102.165C183.121 102.209 183.717 102.251 184.459 102.251C185.424 102.251 186.392 102.142 186.916 101.988C187.133 101.396 187.289 100.735 187.396 100.012H187.973C187.951 101.131 187.881 102.142 187.791 102.997C186.916 103.087 185.841 103.108 184.809 103.108C183.54 103.108 182.463 103.043 181.411 103.043C180.424 103.043 179.656 103.087 178.58 103.108V102.493C180.336 102.493 180.469 102.229 180.469 100.672V94.4845Z" fill="black"/>
<path d="M195.297 92.9687C193.591 92.9687 193.413 92.9906 193.413 94.2208V97.3588L193.541 97.3812C195.124 95.7578 196.527 94.4844 197.709 92.9906V92.3552C198.348 92.3552 198.767 92.3776 199.292 92.3776C199.665 92.3776 200.121 92.3552 200.608 92.3552V92.9463C199.708 92.9463 199.403 93.0364 198.767 93.6068L195.297 96.8126L199.887 101.746C200.299 102.187 200.545 102.493 201.001 102.493V103.108C200.608 103.108 200.212 103.087 199.821 103.087C199.335 103.087 198.851 103.108 198.371 103.108L193.629 97.7771L193.413 97.8604V101.242C193.413 102.384 193.679 102.493 195.344 102.493V103.108C194.397 103.087 193.413 103.043 192.448 103.043C191.48 103.043 190.493 103.087 189.505 103.108V102.493C191.084 102.493 191.44 102.384 191.44 101.025V94.4386C191.44 93.0364 191.129 92.9687 189.505 92.9687V92.3552C190.716 92.3776 191.44 92.423 192.315 92.423C193.456 92.423 194.243 92.3776 195.297 92.3552V92.9687Z" fill="black"/>
<path d="M203.637 93.8916C203.637 93.1911 203.175 92.9906 201.704 92.9687V92.3552C202.277 92.3776 202.807 92.423 203.503 92.423C204.076 92.423 204.752 92.3776 205.348 92.3552C207.583 95.2719 210.023 98.061 212.279 100.936H212.324V94.0886C212.324 93.0807 211.693 92.9687 210.305 92.9687V92.3552C211.208 92.3776 212.061 92.423 212.764 92.423C213.595 92.423 214.387 92.3776 215.221 92.3552V92.9687C213.551 92.9687 213.199 93.1235 213.199 94.6599V101.025C213.199 101.901 213.288 102.625 213.332 103.349L211.581 103.13L204.556 94.6172H204.512V101.285C204.512 102.384 204.735 102.493 206.4 102.493V103.108C205.587 103.087 204.752 103.043 203.921 103.043C203.157 103.043 202.365 103.087 201.613 103.108V102.493C203.308 102.493 203.637 102.251 203.637 101.153V93.8916Z" fill="black"/>
<path d="M218.359 94.1782C218.359 93.013 217.833 92.9687 216.385 92.9687V92.3552C217.176 92.3776 218.136 92.423 219.277 92.423C220.335 92.423 221.099 92.3776 222.308 92.3552V92.9687C220.683 92.9687 220.335 92.9906 220.335 94.1782V101.025C220.335 102.341 220.508 102.493 222.308 102.493V103.108C221.339 103.087 220.375 103.043 219.389 103.043C218.381 103.043 217.393 103.087 216.385 103.108V102.493C218.007 102.493 218.359 102.341 218.359 101.025V94.1782Z" fill="black"/>
<path d="M229.444 92.9687C227.728 92.9687 227.552 92.9906 227.552 94.2208V97.3588L227.684 97.3812C229.267 95.7578 230.667 94.4844 231.852 92.9906V92.3552C232.488 92.3552 232.905 92.3776 233.435 92.3776C233.803 92.3776 234.267 92.3552 234.749 92.3552V92.9463C233.848 92.9463 233.543 93.0364 232.905 93.6068L229.444 96.8126L234.025 101.746C234.444 102.187 234.687 102.493 235.145 102.493V103.108C234.749 103.108 234.353 103.087 233.957 103.087C233.475 103.087 232.995 103.108 232.515 103.108L227.769 97.7771L227.552 97.8604V101.242C227.552 102.384 227.813 102.493 229.484 102.493V103.108C228.537 103.087 227.552 103.043 226.587 103.043C225.623 103.043 224.636 103.087 223.645 103.108V102.493C225.227 102.493 225.575 102.384 225.575 101.025V94.4386C225.575 93.0364 225.272 92.9687 223.645 92.9687V92.3552C224.851 92.3776 225.575 92.423 226.453 92.423C227.596 92.423 228.388 92.3776 229.444 92.3552V92.9687Z" fill="black"/>
<path d="M98.0127 123.819C98.1663 123.241 98.2736 122.612 98.3351 121.914L98.3975 121.858H98.6726L98.7179 121.908L98.7428 123.162C99.0663 123.415 99.3742 123.579 99.6652 123.651C99.9606 123.721 100.236 123.758 100.498 123.758C101.274 123.758 101.857 123.539 102.244 123.091C102.63 122.647 102.826 122.139 102.826 121.57C102.826 121.277 102.765 121.029 102.648 120.829C102.529 120.625 102.375 120.474 102.184 120.374C101.988 120.269 101.633 120.163 101.11 120.045C100.51 119.91 100.068 119.77 99.7794 119.621C99.4955 119.474 99.2704 119.251 99.1158 118.958C98.959 118.668 98.8794 118.309 98.8794 117.888C98.8794 117.269 99.0502 116.724 99.3966 116.251C99.7414 115.77 100.173 115.408 100.698 115.152C101.224 114.9 101.812 114.772 102.458 114.772C103.092 114.772 103.638 114.905 104.091 115.178L104.115 115.255C104.01 115.683 103.912 116.247 103.819 116.954L103.768 117.011H103.482L103.429 116.954V115.996C103.091 115.599 102.587 115.398 101.918 115.398C101.523 115.398 101.167 115.481 100.844 115.648C100.527 115.816 100.277 116.063 100.098 116.379C99.9236 116.696 99.8319 117.047 99.8319 117.426C99.8319 117.758 99.898 118.039 100.029 118.263C100.164 118.487 100.346 118.647 100.579 118.756C100.81 118.855 101.208 118.975 101.767 119.105C102.225 119.209 102.553 119.3 102.749 119.367C102.942 119.433 103.127 119.55 103.308 119.709C103.491 119.87 103.627 120.059 103.723 120.282C103.819 120.505 103.865 120.767 103.865 121.069C103.865 121.691 103.675 122.256 103.295 122.756C102.917 123.255 102.461 123.655 101.927 123.953C101.395 124.25 100.76 124.4 100.021 124.4C99.3132 124.4 98.6548 124.231 98.0398 123.894L98.0127 123.819Z" fill="black"/>
<path d="M104.999 119.513L105.527 118.012C105.718 117.945 105.899 117.913 106.081 117.913C106.234 117.913 106.508 117.931 106.908 117.97C107.263 118.008 107.519 118.026 107.685 118.026C107.945 118.026 108.185 117.986 108.397 117.913L108.513 118.096C107.323 119.564 106.728 120.944 106.728 122.256C106.728 122.677 106.816 123.017 106.995 123.279C107.173 123.539 107.427 123.67 107.76 123.67C108.187 123.67 108.591 123.456 108.971 123.029C109.348 122.603 109.653 122.053 109.886 121.379C110.117 120.703 110.234 120.118 110.234 119.629C110.234 119.054 110.041 118.767 109.656 118.767C109.55 118.767 109.445 118.794 109.342 118.842L109.27 118.836L109.187 118.703V118.625C109.342 118.501 109.505 118.345 109.68 118.152L109.88 117.931C109.956 117.894 110.041 117.874 110.136 117.874C110.433 117.874 110.662 117.986 110.825 118.212C110.987 118.439 111.07 118.731 111.07 119.094C111.07 119.824 110.849 120.634 110.409 121.505C109.966 122.378 109.445 123.073 108.839 123.589C108.234 124.104 107.702 124.358 107.243 124.358C106.848 124.358 106.501 124.203 106.209 123.894C105.916 123.589 105.771 123.17 105.771 122.647C105.771 122.035 105.909 121.431 106.182 120.829C106.46 120.221 106.986 119.495 107.76 118.639C107.662 118.669 107.344 118.689 106.813 118.689L106.532 118.675C106.244 118.675 105.975 118.699 105.718 118.749C105.642 118.855 105.498 119.113 105.28 119.524L105.218 119.564H105.04L104.999 119.513Z" fill="black"/>
<path d="M112.803 121.024C113.258 120.94 113.692 120.811 114.101 120.636C114.513 120.461 114.826 120.225 115.049 119.932C115.265 119.639 115.378 119.337 115.378 119.034C115.378 118.803 115.317 118.625 115.2 118.514C115.083 118.4 114.942 118.342 114.775 118.342C114.594 118.342 114.38 118.394 114.135 118.499C113.89 118.605 113.671 118.794 113.481 119.073C113.292 119.352 113.068 120.003 112.803 121.024ZM115.8 122.722L115.87 122.884L115.86 122.974C114.791 123.872 113.886 124.325 113.141 124.325C112.896 124.325 112.652 124.262 112.398 124.13C112.144 123.996 111.956 123.807 111.836 123.557C111.711 123.308 111.647 122.993 111.647 122.607C111.647 122.061 111.74 121.484 111.919 120.868C112.099 120.255 112.278 119.8 112.459 119.508C112.64 119.215 112.909 118.939 113.271 118.68C113.632 118.422 113.975 118.212 114.296 118.052C114.62 117.896 114.934 117.813 115.24 117.813C115.568 117.813 115.839 117.902 116.047 118.078C116.257 118.25 116.36 118.492 116.36 118.803C116.36 119.153 116.263 119.479 116.062 119.776C115.863 120.071 115.497 120.352 114.966 120.616C114.437 120.886 113.803 121.1 113.061 121.27L112.757 121.34C112.67 121.758 112.628 122.107 112.628 122.384C112.628 122.775 112.714 123.086 112.886 123.318C113.061 123.55 113.303 123.663 113.615 123.663C114.205 123.663 114.907 123.339 115.729 122.697L115.8 122.722Z" fill="black"/>
<path d="M117.378 124.313L117.261 124.222C117.566 123.229 117.817 122.187 118.023 121.104C118.226 120.019 118.33 119.323 118.33 119.015C118.33 118.82 118.277 118.722 118.171 118.722C118.041 118.722 117.682 118.918 117.092 119.308L117.011 119.29L116.946 119.146L116.967 119.048C117.352 118.738 117.761 118.457 118.187 118.199C118.615 117.945 118.929 117.813 119.132 117.813C119.305 117.813 119.391 117.925 119.391 118.141C119.391 118.394 119.234 119.237 118.916 120.665C119.32 119.954 119.714 119.358 120.104 118.87C120.489 118.379 120.766 118.078 120.938 117.97C121.11 117.861 121.282 117.802 121.451 117.802C121.529 117.802 121.604 117.82 121.687 117.855L121.708 117.928C121.644 118.164 121.573 118.628 121.492 119.314L121.309 119.357C121.179 119.18 121.033 119.094 120.872 119.094C120.748 119.094 120.602 119.141 120.433 119.243C120.26 119.342 120.047 119.543 119.794 119.849C119.546 120.153 119.328 120.497 119.14 120.88C118.955 121.269 118.807 121.687 118.693 122.144C118.581 122.6 118.438 123.25 118.266 124.083C117.823 124.185 117.529 124.262 117.378 124.313Z" fill="black"/>
<path d="M124.055 115.626C124.055 115.396 124.13 115.195 124.278 115.018C124.421 114.84 124.598 114.755 124.807 114.755C124.956 114.755 125.076 114.8 125.166 114.888C125.26 114.979 125.299 115.112 125.299 115.279C125.299 115.514 125.235 115.729 125.099 115.91C124.963 116.092 124.796 116.185 124.593 116.185C124.44 116.185 124.313 116.133 124.21 116.03C124.107 115.926 124.055 115.79 124.055 115.626ZM122.355 119.261L122.291 119.113L122.31 119.027C122.902 118.603 123.357 118.306 123.677 118.131C123.995 117.962 124.245 117.874 124.432 117.874C124.606 117.874 124.698 118.005 124.698 118.258C124.698 118.376 124.672 118.544 124.628 118.758C124.579 118.972 124.473 119.406 124.3 120.056C123.829 121.816 123.589 122.854 123.589 123.172C123.589 123.347 123.652 123.433 123.771 123.433C123.956 123.433 124.295 123.25 124.789 122.878L124.854 122.9L124.922 123.069L124.914 123.148C124.606 123.383 124.295 123.607 123.973 123.824C123.653 124.042 123.424 124.18 123.284 124.238C123.148 124.297 123.033 124.325 122.946 124.325C122.813 124.325 122.713 124.268 122.637 124.157C122.562 124.047 122.527 123.912 122.527 123.758C122.527 123.565 122.554 123.355 122.606 123.131C122.664 122.906 122.729 122.658 122.807 122.384C123.091 121.379 123.291 120.589 123.411 120.025C123.531 119.461 123.589 119.113 123.589 118.99C123.589 118.842 123.539 118.767 123.44 118.767C123.372 118.767 123.308 118.78 123.251 118.818C123.191 118.847 122.912 119.008 122.429 119.29L122.355 119.261Z" fill="black"/>
<path d="M127.389 120.513C127.389 120.962 127.494 121.314 127.704 121.568C127.917 121.82 128.218 121.949 128.618 121.949C129.139 121.949 129.529 121.712 129.779 121.237C130.031 120.763 130.156 120.226 130.156 119.629C130.156 119.331 130.117 119.083 130.027 118.886C129.943 118.687 129.807 118.527 129.625 118.417C129.446 118.301 129.227 118.245 128.964 118.245C128.463 118.245 128.072 118.47 127.802 118.918C127.525 119.364 127.389 119.897 127.389 120.513ZM128.045 124.163C127.678 124.255 127.328 124.405 126.997 124.612C126.667 124.823 126.432 125.05 126.29 125.297C126.151 125.548 126.076 125.804 126.076 126.075C126.076 126.508 126.251 126.849 126.592 127.096C126.93 127.339 127.373 127.464 127.917 127.464C128.29 127.464 128.631 127.408 128.935 127.308C129.243 127.201 129.485 127.051 129.653 126.845C129.829 126.643 129.916 126.425 129.916 126.185C129.916 126.034 129.881 125.88 129.807 125.721C129.731 125.565 129.64 125.432 129.525 125.325C129.411 125.221 129.222 125.069 128.961 124.866L128.045 124.163ZM127.838 123.93C127.641 123.726 127.549 123.571 127.549 123.474C127.549 123.366 127.609 123.233 127.744 123.059C127.877 122.888 128.113 122.658 128.435 122.368C128.315 122.38 128.21 122.384 128.13 122.384C127.614 122.384 127.204 122.246 126.899 121.978C126.597 121.706 126.446 121.3 126.446 120.763C126.446 120.386 126.516 120.005 126.665 119.633C126.815 119.256 127.015 118.951 127.268 118.711C127.521 118.474 127.828 118.269 128.185 118.096C128.544 117.922 128.934 117.833 129.356 117.833C130.104 117.833 130.622 118.078 130.915 118.568C131.42 118.554 131.794 118.527 132.041 118.48L132.068 118.514L131.964 119.163C131.849 119.156 131.734 119.153 131.622 119.153C131.476 119.153 131.3 119.163 131.102 119.176C131.12 119.314 131.128 119.444 131.128 119.556C131.128 120.172 130.93 120.729 130.528 121.226C130.125 121.724 129.583 122.068 128.903 122.256C128.657 122.481 128.533 122.677 128.533 122.84C128.533 123.004 128.601 123.162 128.726 123.307C128.855 123.453 129.244 123.793 129.889 124.325C130.263 124.633 130.511 124.894 130.622 125.129C130.737 125.357 130.795 125.579 130.795 125.788C130.795 126.344 130.489 126.828 129.87 127.228C129.255 127.628 128.481 127.827 127.552 127.827C126.797 127.827 126.219 127.685 125.818 127.397C125.424 127.109 125.225 126.724 125.225 126.242C125.225 125.961 125.299 125.681 125.459 125.402C125.617 125.124 125.907 124.852 126.334 124.583C126.763 124.308 127.258 124.095 127.838 123.93Z" fill="black"/>
<path d="M133.572 121.024C134.031 120.94 134.461 120.811 134.872 120.636C135.283 120.461 135.6 120.225 135.817 119.932C136.04 119.639 136.145 119.337 136.145 119.034C136.145 118.803 136.088 118.625 135.971 118.514C135.857 118.4 135.713 118.342 135.548 118.342C135.368 118.342 135.151 118.394 134.905 118.499C134.663 118.605 134.444 118.794 134.255 119.073C134.065 119.352 133.84 120.003 133.572 121.024ZM136.572 122.722L136.644 122.884L136.631 122.974C135.563 123.872 134.657 124.325 133.912 124.325C133.669 124.325 133.423 124.262 133.169 124.13C132.917 123.996 132.729 123.807 132.604 123.557C132.48 123.308 132.422 122.993 132.422 122.607C132.422 122.061 132.511 121.484 132.693 120.868C132.872 120.255 133.05 119.8 133.23 119.508C133.412 119.215 133.683 118.939 134.044 118.68C134.404 118.422 134.745 118.212 135.071 118.052C135.393 117.896 135.707 117.813 136.012 117.813C136.34 117.813 136.611 117.902 136.821 118.078C137.028 118.25 137.132 118.492 137.132 118.803C137.132 119.153 137.035 119.479 136.833 119.776C136.631 120.071 136.269 120.352 135.736 120.616C135.207 120.886 134.571 121.1 133.835 121.27L133.528 121.34C133.441 121.758 133.397 122.107 133.397 122.384C133.397 122.775 133.485 123.086 133.66 123.318C133.831 123.55 134.076 123.663 134.388 123.663C134.977 123.663 135.679 123.339 136.5 122.697L136.572 122.722Z" fill="black"/>
</g>
<defs>
<clipPath id="clip0_523_45">
<rect width="236" height="128" fill="white"/>
</clipPath>
</defs>
</svg>
