<?xml version="1.0" encoding="UTF-8"?> <svg xmlns="http://www.w3.org/2000/svg" width="148.097" height="45.55" viewBox="0 0 148.097 45.55"><g id="Group_83" data-name="Group 83" transform="translate(-112.917 -222.461)"><path id="Path_90" data-name="Path 90" d="M112.917,223.07h3.614V232h.091l6.955-8.928h4.009l-6.1,7.774,7.137,12.086h-3.978l-5.314-9.262-2.794,3.523v5.739h-3.614Z" transform="translate(0 -0.244)" fill="#101010"></path><path id="Path_91" data-name="Path 91" d="M143.256,223.07h3.614v19.861h-3.614Z" transform="translate(-12.176 -0.244)" fill="#101010"></path><path id="Path_92" data-name="Path 92" d="M160.482,226.107h-5.709V223.07H169.8v3.037H164.1v16.824h-3.614Z" transform="translate(-16.798 -0.244)" fill="#101010"></path><path id="Path_93" data-name="Path 93" d="M182.928,232.817c0-6.5,4.07-10.356,9.11-10.356a7.771,7.771,0,0,1,5.739,2.521l-1.913,2.217a5.154,5.154,0,0,0-3.766-1.579c-3.158,0-5.466,2.672-5.466,7.106,0,4.464,2.1,7.2,5.405,7.2a5.42,5.42,0,0,0,4.191-1.913l1.944,2.156a7.965,7.965,0,0,1-6.287,2.886C186.906,243.051,182.928,239.406,182.928,232.817Z" transform="translate(-28.098)" fill="#101010"></path><path id="Path_94" data-name="Path 94" d="M213.927,223.07h3.614v7.956h7.9V223.07h3.614v19.861h-3.614v-8.746h-7.9v8.746h-3.614Z" transform="translate(-40.539 -0.244)" fill="#101010"></path><path id="Path_95" data-name="Path 95" d="M247.613,223.07h12v3.037h-8.381v4.98h7.106v3.037h-7.106v5.769h8.685v3.037h-12.3Z" transform="translate(-54.059 -0.244)" fill="#101010"></path><path id="Path_96" data-name="Path 96" d="M274.958,223.07h3.857L284.767,234A44.362,44.362,0,0,1,286.8,238.5h.121c-.212-2.126-.455-4.555-.455-6.742V223.07h3.371v19.861h-3.857L280.029,232a44.24,44.24,0,0,1-2.034-4.494h-.122c.213,2.065.456,4.525.456,6.742v8.685h-3.371Z" transform="translate(-65.034 -0.244)" fill="#101010"></path><path id="Path_97" data-name="Path 97" d="M215.442,281.83l1.943-2.369a7.839,7.839,0,0,0,5.315,2.156c2.186,0,3.4-1,3.4-2.521,0-1.579-1.276-2.1-3.067-2.854l-2.7-1.184c-1.974-.82-4.009-2.369-4.009-5.254,0-3.188,2.794-5.648,6.681-5.648a8.963,8.963,0,0,1,6.164,2.46l-1.943,2.369a6.509,6.509,0,0,0-4.221-1.67c-1.853,0-3.037.85-3.037,2.277,0,1.519,1.488,2.065,3.128,2.763l2.672,1.093c2.369,1,4.009,2.49,4.009,5.375,0,3.22-2.672,5.922-7.167,5.922A9.929,9.929,0,0,1,215.442,281.83Z" transform="translate(-41.147 -16.734)" fill="#101010"></path><path id="Path_98" data-name="Path 98" d="M249.23,267.8h-5.709v-3.037h15.032V267.8h-5.709v16.824H249.23Z" transform="translate(-51.417 -16.978)" fill="#101010"></path><path id="Path_99" data-name="Path 99" d="M271.979,274.36c0-6.407,3.584-10.2,8.776-10.2s8.776,3.8,8.776,10.2c0,6.438-3.584,10.386-8.776,10.386S271.979,280.8,271.979,274.36Zm13.848,0c0-4.4-2-7.045-5.071-7.045-3.1,0-5.071,2.642-5.071,7.045,0,4.434,1.974,7.258,5.071,7.258C283.823,281.618,285.827,278.793,285.827,274.36Z" transform="translate(-62.838 -16.734)" fill="#101010"></path><path id="Path_100" data-name="Path 100" d="M307.949,264.765h6.712c4.16,0,7.349,1.458,7.349,5.921a5.56,5.56,0,0,1-3.918,5.679l4.707,8.26H318.76l-4.251-7.714h-2.946v7.714h-3.613Zm6.346,9.262c2.7,0,4.161-1.123,4.161-3.341,0-2.247-1.458-3.036-4.161-3.036h-2.733v6.377Z" transform="translate(-77.274 -16.978)" fill="#101010"></path><path id="Path_101" data-name="Path 101" d="M338.085,264.765h12V267.8H341.7v4.98H348.8v3.036H341.7v5.77h8.684v3.037h-12.3Z" transform="translate(-89.369 -16.978)" fill="#101010"></path></g></svg> 