<svg width="176" height="40" viewBox="0 0 176 40" fill="none" xmlns="http://www.w3.org/2000/svg">
<g clip-path="url(#clip0_523_16)">
<path d="M9.99934e-08 6.22702C0.00132366 7.48507 0.501667 8.69121 1.39124 9.58078C2.28081 10.4704 3.48695 10.9707 4.745 10.972H28.6C29.1573 10.9841 29.6877 11.214 30.0776 11.6124C30.4675 12.0108 30.6858 12.5461 30.6858 13.1035C30.6858 13.661 30.4675 14.1962 30.0776 14.5947C29.6877 14.9931 29.1573 15.223 28.6 15.235H4.745C4.12188 15.235 3.50486 15.3578 2.92917 15.5962C2.35348 15.8347 1.83039 16.1842 1.38978 16.6248C0.949164 17.0654 0.59965 17.5885 0.361192 18.1642C0.122733 18.7399 0 19.3569 0 19.98C0 20.6031 0.122733 21.2202 0.361192 21.7959C0.59965 22.3715 0.949164 22.8946 1.38978 23.3352C1.83039 23.7759 2.35348 24.1254 2.92917 24.3638C3.50486 24.6023 4.12188 24.725 4.745 24.725H28.595C29.0164 24.7251 29.4282 24.8503 29.7783 25.0847C30.1285 25.3191 30.4012 25.6521 30.5618 26.0417C30.7225 26.4312 30.7639 26.8597 30.6808 27.2727C30.5977 27.6858 30.3938 28.0649 30.095 28.362C29.8988 28.5604 29.6652 28.718 29.4077 28.8256C29.1503 28.9333 28.874 28.9888 28.595 28.989H4.745C3.48655 28.989 2.27964 29.4889 1.38978 30.3788C0.499918 31.2687 9.99934e-08 32.4756 9.99934e-08 33.734C9.99934e-08 34.9925 0.499918 36.1994 1.38978 37.0892C2.27964 37.9791 3.48655 38.479 4.745 38.479H33.345V35.866H4.745C4.17956 35.866 3.63728 35.6414 3.23745 35.2416C2.83762 34.8417 2.613 34.2995 2.613 33.734C2.613 33.1686 2.83762 32.6263 3.23745 32.2265C3.63728 31.8266 4.17956 31.602 4.745 31.602H29.903V31.419C31.0025 31.1036 31.951 30.4016 32.574 29.4422C33.197 28.4829 33.4524 27.3308 33.2933 26.1981C33.1342 25.0653 32.5713 24.0282 31.7082 23.2776C30.8451 22.527 29.7399 22.1134 28.596 22.113H4.745C4.17956 22.113 3.63728 21.8884 3.23745 21.4886C2.83762 21.0887 2.613 20.5465 2.613 19.981C2.613 19.4156 2.83762 18.8733 3.23745 18.4735C3.63728 18.0736 4.17956 17.849 4.745 17.849H28.595C29.7389 17.8486 30.8441 17.4351 31.7072 16.6845C32.5703 15.9339 33.1332 14.8967 33.2923 13.764C33.4514 12.6312 33.196 11.4791 32.573 10.5198C31.95 9.56048 31.0015 8.85847 29.902 8.54302V8.35902H4.745C4.4612 8.36517 4.17904 8.31458 3.91505 8.21023C3.65106 8.10587 3.41057 7.94985 3.20769 7.75131C3.00481 7.55277 2.84361 7.31572 2.73356 7.05406C2.62352 6.79239 2.56683 6.51139 2.56683 6.22752C2.56683 5.94366 2.62352 5.66265 2.73356 5.40099C2.84361 5.13933 3.00481 4.90227 3.20769 4.70374C3.41057 4.5052 3.65106 4.34918 3.91505 4.24482C4.17904 4.14046 4.4612 4.08988 4.745 4.09602H33.345V1.48302H4.745C3.48721 1.48461 2.28137 1.9849 1.39188 2.8742C0.502397 3.7635 0.0018523 4.96923 9.99934e-08 6.22702ZM72.426 27.368C71.6954 27.3611 70.9697 27.4868 70.284 27.739C69.6414 27.978 69.0605 28.358 68.584 28.851C68.0827 29.3822 67.6999 30.0138 67.461 30.704C67.1746 31.5461 67.0375 32.4318 67.056 33.321C67.0345 34.2184 67.188 35.1114 67.508 35.95C67.7788 36.6389 68.1981 37.2596 68.736 37.768C69.2495 38.2445 69.8652 38.5972 70.536 38.799C71.2343 39.0104 71.9604 39.1159 72.69 39.112C73.4098 39.1334 74.1286 39.0437 74.821 38.846C75.3205 38.6898 75.7903 38.4512 76.211 38.14L76.72 36.84L76.442 36.631C75.6492 37.3109 74.6373 37.681 73.593 37.673C73.1121 37.6839 72.6369 37.568 72.215 37.337C71.8199 37.112 71.4859 36.7937 71.242 36.41C70.9725 35.9802 70.7805 35.5063 70.675 35.01C70.5482 34.4398 70.4861 33.8571 70.49 33.273H77.137C77.1567 33.1817 77.1645 33.0883 77.16 32.995V32.509C77.2482 31.1344 76.8138 29.7771 75.944 28.709C75.4896 28.2442 74.9397 27.8836 74.3323 27.6521C73.7249 27.4205 73.0745 27.3236 72.426 27.368ZM70.481 32.232C70.4968 31.7783 70.5392 31.3258 70.608 30.877C70.6684 30.4581 70.7733 30.0467 70.921 29.65C71.0412 29.3167 71.2307 29.0127 71.477 28.758C71.5886 28.6447 71.7222 28.5555 71.8696 28.4958C72.017 28.4361 72.175 28.4073 72.334 28.411C72.6339 28.4158 72.9235 28.5211 73.1565 28.71C73.3895 28.899 73.5523 29.1606 73.619 29.453C73.907 30.3511 74.0518 31.2889 74.048 32.232H70.481ZM108.431 8.81302C108.454 7.98702 108.505 7.15702 108.582 6.32302C108.007 6.41074 107.426 6.44955 106.845 6.43902C106.49 6.43902 106.165 6.42736 105.872 6.40402C105.579 6.38069 105.324 6.35369 105.108 6.32302C105.185 7.15702 105.236 7.98702 105.259 8.81302C105.282 9.63902 105.294 10.523 105.294 11.465V12.392C105.294 13.334 105.282 14.2217 105.259 15.055C105.236 15.8884 105.185 16.6914 105.108 17.464C105.361 17.4304 105.617 17.4147 105.872 17.417H107.829C108.081 17.4138 108.333 17.4295 108.582 17.464C108.505 16.692 108.454 15.889 108.431 15.055C108.408 14.221 108.396 13.333 108.395 12.391V11.464C108.395 10.5234 108.407 9.63969 108.431 8.81302ZM76.456 16.399C76.3343 16.2651 76.2504 16.1011 76.213 15.924C76.151 15.6387 76.1238 15.3469 76.132 15.055C76.132 14.2217 76.1437 13.384 76.167 12.542C76.1903 11.7 76.202 10.785 76.202 9.79702C76.2177 9.2027 76.1112 8.61149 75.889 8.06002C75.6968 7.60334 75.3945 7.20137 75.009 6.89002C74.6117 6.57963 74.1544 6.35491 73.666 6.23002C73.1109 6.08664 72.5393 6.01671 71.966 6.02202C71.2021 6.02628 70.4451 6.16752 69.731 6.43902C68.9701 6.72147 68.2607 7.12686 67.631 7.63902L67.931 9.02902H68.093C68.2189 8.84126 68.3802 8.6799 68.568 8.55402C68.7885 8.40064 69.0209 8.2652 69.263 8.14902C69.5189 8.02497 69.787 7.92778 70.063 7.85902C70.3282 7.79259 70.6006 7.75901 70.874 7.75902C71.172 7.74192 71.4704 7.78548 71.7511 7.88707C72.0318 7.98865 72.289 8.14615 72.507 8.35002C72.6974 8.53451 72.8479 8.75604 72.9494 9.00095C73.0509 9.24586 73.1011 9.50896 73.097 9.77402C73.1016 9.94756 73.0741 10.1204 73.016 10.284C72.9404 10.4466 72.8146 10.5805 72.657 10.666C72.3907 10.8163 72.1069 10.9331 71.812 11.014C71.4333 11.13 70.92 11.265 70.272 11.419C69.789 11.5293 69.3163 11.6805 68.859 11.871C68.4676 12.0331 68.1041 12.2558 67.782 12.531C67.4822 12.7918 67.2448 13.1164 67.087 13.481C66.9158 13.8995 66.833 14.349 66.844 14.801C66.8444 15.1754 66.9069 15.5471 67.029 15.901C67.1524 16.2645 67.3538 16.5966 67.619 16.874C67.9068 17.1711 68.2597 17.3971 68.65 17.534C69.1345 17.6989 69.6443 17.7771 70.156 17.765C70.7763 17.7879 71.3905 17.6354 71.928 17.325C72.4147 17.0167 72.8357 16.6154 73.167 16.144C73.3163 16.6137 73.5979 17.0304 73.978 17.344C74.3805 17.6369 74.8707 17.784 75.368 17.761C75.7063 17.764 76.0433 17.7171 76.368 17.622C76.6767 17.5294 77.055 17.3904 77.503 17.205V16.649C77.2974 16.6514 77.092 16.636 76.889 16.603C76.7271 16.5823 76.5759 16.5109 76.457 16.399H76.456ZM73.132 12.427C73.124 12.7744 73.12 13.28 73.12 13.944C73.1636 14.553 72.9958 15.1584 72.645 15.658C72.4977 15.8443 72.3091 15.9936 72.094 16.0941C71.8789 16.1946 71.6433 16.2435 71.406 16.237C71.2215 16.2432 71.0381 16.2055 70.871 16.1269C70.7039 16.0483 70.5579 15.9311 70.445 15.785C70.1812 15.4016 70.0547 14.9404 70.086 14.476C70.058 14.0103 70.1583 13.5457 70.376 13.133C70.5598 12.833 70.8142 12.5824 71.117 12.403C71.4327 12.2193 71.7682 12.0717 72.117 11.963C72.4756 11.849 72.8212 11.6975 73.148 11.511C73.1453 11.7737 73.1403 12.0787 73.133 12.426L73.132 12.427ZM124.273 16.874C124.56 17.1711 124.913 17.397 125.303 17.534C125.788 17.6989 126.297 17.7771 126.809 17.765C127.429 17.7879 128.043 17.6354 128.581 17.325C129.068 17.0168 129.489 16.6154 129.82 16.144C129.969 16.6137 130.251 17.0304 130.631 17.344C131.034 17.6369 131.524 17.784 132.021 17.761C132.359 17.764 132.696 17.7171 133.021 17.622C133.33 17.5294 133.708 17.3904 134.156 17.205V16.649C133.95 16.6514 133.745 16.636 133.542 16.603C133.381 16.5804 133.231 16.5076 133.114 16.395C132.992 16.2611 132.908 16.0971 132.871 15.92C132.809 15.6347 132.782 15.3429 132.79 15.051C132.79 14.2177 132.802 13.38 132.825 12.538C132.848 11.696 132.86 10.781 132.86 9.79302C132.876 9.1987 132.769 8.60748 132.547 8.05602C132.355 7.59919 132.053 7.19716 131.667 6.88602C131.27 6.57563 130.812 6.35091 130.324 6.22602C129.769 6.08264 129.197 6.01271 128.624 6.01802C127.86 6.0223 127.103 6.16354 126.389 6.43502C125.628 6.71751 124.919 7.12289 124.289 7.63502L124.589 9.02502H124.751C124.877 8.83724 125.038 8.67588 125.226 8.55002C125.446 8.3966 125.679 8.26116 125.921 8.14502C126.177 8.02094 126.445 7.92375 126.721 7.85502C126.986 7.78859 127.259 7.75501 127.532 7.75502C127.83 7.73792 128.128 7.78148 128.409 7.88307C128.69 7.98465 128.947 8.14215 129.165 8.34602C129.356 8.53042 129.506 8.75191 129.608 8.99683C129.71 9.24174 129.76 9.50488 129.756 9.77002C129.76 9.94355 129.733 10.1164 129.675 10.28C129.599 10.4426 129.474 10.5765 129.316 10.662C129.05 10.8123 128.766 10.9292 128.471 11.01C128.092 11.126 127.579 11.261 126.931 11.415C126.448 11.5253 125.975 11.6765 125.518 11.867C125.127 12.0291 124.763 12.2518 124.441 12.527C124.141 12.7878 123.904 13.1124 123.746 13.477C123.575 13.8956 123.492 14.345 123.503 14.797C123.503 15.1714 123.566 15.5431 123.688 15.897C123.81 16.2612 124.01 16.5944 124.274 16.873L124.273 16.874ZM127.029 13.133C127.213 12.8331 127.467 12.5825 127.77 12.403C128.086 12.2193 128.421 12.0717 128.77 11.963C129.128 11.8491 129.474 11.6976 129.8 11.511C129.8 11.7737 129.796 12.0787 129.789 12.426C129.782 12.7734 129.778 13.279 129.777 13.943C129.821 14.552 129.653 15.1574 129.302 15.657C129.155 15.8433 128.966 15.9927 128.751 16.0932C128.536 16.1937 128.3 16.2426 128.063 16.236C127.878 16.2423 127.695 16.2046 127.528 16.126C127.361 16.0474 127.215 15.9302 127.102 15.784C126.838 15.4006 126.712 14.9394 126.743 14.475C126.714 14.0099 126.814 13.5458 127.03 13.133H127.029ZM106.844 3.77602C107.264 3.77291 107.67 3.62438 107.994 3.35569C108.317 3.087 108.537 2.71472 108.616 2.30211C108.696 1.8895 108.631 1.46201 108.431 1.0923C108.231 0.722591 107.909 0.433459 107.521 0.27404C107.132 0.114621 106.7 0.0947498 106.298 0.217803C105.896 0.340856 105.549 0.599243 105.316 0.949053C105.083 1.29886 104.979 1.71852 105.02 2.1367C105.062 2.55489 105.247 2.94581 105.544 3.24302C105.713 3.41608 105.915 3.5526 106.139 3.64412C106.363 3.73563 106.603 3.78019 106.845 3.77502L106.844 3.77602ZM85.188 28.55C85.4869 28.5288 85.7868 28.575 86.0655 28.6853C86.3442 28.7955 86.5945 28.967 86.798 29.187C87.1873 29.6712 87.4394 30.2511 87.528 30.866H88.084C88.1702 30.4326 88.2903 30.0067 88.443 29.592C88.5803 29.198 88.7548 28.818 88.964 28.457C88.4103 28.1335 87.8241 27.8694 87.215 27.669C86.4903 27.4526 85.7361 27.3514 84.98 27.369C84.1172 27.3575 83.2602 27.5109 82.455 27.821C81.7334 28.0995 81.0756 28.5209 80.521 29.06C79.9837 29.5915 79.5651 30.2309 79.293 30.936C79.0023 31.6896 78.8571 32.4914 78.865 33.299C78.8655 34.0159 78.9665 34.7292 79.165 35.418C79.3612 36.1126 79.705 36.7566 80.173 37.306C80.6806 37.8883 81.3201 38.3409 82.038 38.626C82.9463 38.9745 83.9146 39.1397 84.887 39.112C85.5111 39.1249 86.1331 39.035 86.728 38.846C87.1898 38.6976 87.6242 38.4747 88.014 38.186L88.246 37.491C88.3226 37.2607 88.4155 37.0361 88.524 36.819L88.246 36.587C87.9725 36.9089 87.6309 37.1661 87.246 37.34C86.5903 37.6591 85.8481 37.7548 85.1329 37.6125C84.4177 37.4702 83.7687 37.0978 83.285 36.552C82.6393 35.6034 82.3295 34.466 82.405 33.321C82.3439 32.1119 82.5827 30.9065 83.1 29.812C83.2891 29.4223 83.5869 29.0956 83.9576 28.8714C84.3283 28.6473 84.756 28.5353 85.189 28.549L85.188 28.55ZM61.888 32.534C62.1813 32.134 62.5173 31.6864 62.896 31.191C63.2747 30.6957 63.6453 30.217 64.008 29.755C64.3707 29.2917 64.704 28.871 65.008 28.493C65.312 28.115 65.532 27.841 65.668 27.671L65.089 27.752C64.92 27.7752 64.7496 27.7869 64.579 27.787C64.4164 27.7875 64.2539 27.7758 64.093 27.752C63.9383 27.7287 63.7763 27.7017 63.607 27.671C63.2363 28.3197 62.8463 28.9334 62.437 29.512C62.0277 30.0907 61.6147 30.7044 61.198 31.353C60.8427 30.7357 60.503 30.118 60.179 29.5C59.855 28.882 59.5307 28.272 59.206 27.67C58.8973 27.7014 58.5847 27.7284 58.268 27.751C57.9513 27.7737 57.6387 27.7854 57.33 27.786C57.0213 27.786 56.7047 27.7744 56.38 27.751C56.0553 27.7277 55.708 27.7007 55.338 27.67C55.492 27.9014 55.7197 28.2564 56.021 28.735C56.3223 29.2137 56.6467 29.747 56.994 30.335C57.3413 30.9217 57.6967 31.52 58.06 32.13C58.4233 32.74 58.7437 33.2997 59.021 33.809C58.743 34.2264 58.415 34.6974 58.037 35.222L56.925 36.762C56.5617 37.264 56.2283 37.708 55.925 38.094C55.7385 38.3484 55.5333 38.5884 55.311 38.812C55.4986 38.7829 55.6881 38.7672 55.878 38.765H56.353C56.6703 38.7646 56.9873 38.7803 57.303 38.812C57.6737 38.1947 58.0637 37.5577 58.473 36.901C58.8823 36.2444 59.3107 35.592 59.758 34.944L61.889 38.812C62.2047 38.7803 62.5217 38.7646 62.839 38.765H64.739C65.0563 38.7646 65.3733 38.7803 65.689 38.812C65.0403 37.7774 64.3997 36.739 63.767 35.697C63.1343 34.655 62.508 33.6004 61.888 32.533V32.534ZM52.021 8.99902C51.4961 8.60406 50.929 8.26867 50.33 7.99902C49.73 7.73236 49.1663 7.45069 48.639 7.15402C48.1562 6.89294 47.715 6.56129 47.33 6.17002C47.1516 5.97257 47.014 5.74183 46.925 5.49105C46.836 5.24027 46.7974 4.97439 46.8115 4.70866C46.8255 4.44293 46.8919 4.18259 47.0068 3.94257C47.1217 3.70256 47.2828 3.4876 47.481 3.31002C47.9562 2.8829 48.5796 2.65859 49.218 2.68502C49.8407 2.65412 50.4556 2.83387 50.9636 3.19527C51.4716 3.55667 51.843 4.07865 52.018 4.67702H52.365L52.747 3.41502C52.847 3.08169 52.9667 2.73836 53.106 2.38502C52.624 2.0122 52.0786 1.72965 51.496 1.55102C50.7862 1.3387 50.0478 1.2375 49.307 1.25102C48.6335 1.24741 47.9642 1.35694 47.327 1.57502C46.7187 1.7814 46.1562 2.10405 45.671 2.52502C45.1828 2.95481 44.7921 3.48396 44.525 4.07702C44.2281 4.7475 44.0816 5.47488 44.096 6.20802C44.0653 6.96302 44.2417 7.71202 44.606 8.37402C44.9353 8.92607 45.3679 9.40954 45.88 9.79802C46.3968 10.1883 46.9564 10.5185 47.548 10.782C48.148 11.0527 48.704 11.3307 49.216 11.616C49.6902 11.8743 50.1203 12.2064 50.49 12.6C50.8388 12.995 51.0216 13.5095 51 14.036C51.0054 14.3438 50.9498 14.6497 50.8366 14.9359C50.7233 15.2222 50.5545 15.4832 50.34 15.704C50.0649 15.9555 49.7408 16.1475 49.388 16.2679C49.0353 16.3884 48.6615 16.4347 48.29 16.404C47.8646 16.4092 47.4415 16.3416 47.039 16.204C46.6902 16.0858 46.3675 15.901 46.089 15.66C45.5667 15.2029 45.2143 14.5827 45.089 13.9H44.649C44.5717 14.4254 44.479 14.9117 44.371 15.359C44.263 15.8064 44.1317 16.3004 43.977 16.841C44.4281 17.1547 44.9353 17.3788 45.471 17.501C46.2011 17.6875 46.9526 17.7769 47.706 17.767C48.5572 17.7779 49.4049 17.6568 50.219 17.408C50.926 17.1915 51.5833 16.8374 52.153 16.366C52.6875 15.9183 53.115 15.3566 53.404 14.722C53.7027 14.0556 53.8528 13.3322 53.844 12.602C53.8752 11.8456 53.6947 11.0955 53.323 10.436C52.9836 9.87886 52.5418 9.39095 52.021 8.99802V8.99902ZM61.821 6.02302C60.9582 6.01148 60.1012 6.1649 59.296 6.47502C58.5745 6.75358 57.9167 7.17501 57.362 7.71402C56.8247 8.24558 56.4062 8.88496 56.134 9.59002C55.8433 10.3436 55.698 11.1454 55.706 11.953C55.7065 12.6699 55.8075 13.3832 56.006 14.072C56.2019 14.7665 56.5454 15.4105 57.013 15.96C57.5204 16.5421 58.1594 16.9947 58.877 17.28C59.7852 17.6286 60.7536 17.7938 61.726 17.766C62.3501 17.7789 62.9721 17.6891 63.567 17.5C64.0288 17.3517 64.4632 17.1287 64.853 16.84C64.9297 16.608 65.007 16.3764 65.085 16.145C65.1616 15.9147 65.2545 15.6901 65.363 15.473L65.085 15.241C64.8115 15.5629 64.4699 15.8201 64.085 15.994C63.4292 16.3129 62.6871 16.4085 61.972 16.2663C61.2568 16.124 60.6078 15.7516 60.124 15.206C59.4784 14.2574 59.1686 13.12 59.244 11.975C59.1829 10.766 59.4217 9.56053 59.939 8.46602C60.1277 8.07716 60.4249 7.75115 60.7946 7.52725C61.1644 7.30334 61.5909 7.1911 62.023 7.20402C62.3219 7.18279 62.6218 7.22901 62.9005 7.33927C63.1792 7.44953 63.4295 7.621 63.633 7.84102C64.0223 8.32522 64.2744 8.90508 64.363 9.52002H64.919C65.0052 9.08663 65.1252 8.66066 65.278 8.24602C65.4152 7.852 65.5897 7.47195 65.799 7.11102C65.2453 6.78762 64.6591 6.52349 64.05 6.32302C63.3263 6.1066 62.5732 6.00503 61.818 6.02202L61.821 6.02302ZM51.963 22.983C51.075 23.0064 50.0597 23.018 48.917 23.018C48.2217 23.018 47.5343 23.0027 46.855 22.972C46.1757 22.9414 45.4887 22.9184 44.794 22.903C44.8553 23.907 44.9017 24.907 44.933 25.903C44.9643 26.899 44.9797 28.038 44.979 29.32V32.47C44.979 33.752 44.9637 34.8907 44.933 35.886C44.9023 36.8814 44.856 37.858 44.794 38.816C44.9173 38.8 45.068 38.7884 45.246 38.781C45.424 38.7737 45.6863 38.7697 46.033 38.769H49.704C50.7707 38.769 51.6083 38.773 52.217 38.781C52.8257 38.789 53.339 38.8007 53.757 38.816C53.7218 38.7028 53.6987 38.5861 53.688 38.468C53.6571 38.0826 53.6571 37.6954 53.688 37.31C53.7033 37.1714 53.7263 37.017 53.757 36.847C52.8617 36.955 51.9737 37.032 51.093 37.078C50.2123 37.124 49.3323 37.1474 48.453 37.148C48.4063 36.2214 48.383 35.2547 48.383 34.248C48.383 33.754 48.387 33.26 48.395 32.766C48.403 32.272 48.407 31.778 48.407 31.284C50.1517 31.284 51.9043 31.3534 53.665 31.492C53.6337 31.2454 53.6067 31.0564 53.584 30.925C53.5612 30.799 53.5495 30.6711 53.549 30.543C53.5485 30.396 53.5562 30.2491 53.572 30.103C53.5873 29.9644 53.6183 29.7644 53.665 29.503C52.785 29.5497 51.9397 29.5884 51.129 29.619C50.3183 29.6497 49.411 29.6727 48.407 29.688C48.407 28.8394 48.411 27.9977 48.419 27.163C48.427 26.3284 48.4603 25.4867 48.519 24.638C48.689 24.638 48.9747 24.6457 49.376 24.661C49.7773 24.6764 50.229 24.6997 50.731 24.731C51.2323 24.7624 51.7497 24.793 52.283 24.823C52.8163 24.853 53.3067 24.884 53.754 24.916C53.7227 24.746 53.6997 24.5917 53.685 24.453C53.6672 24.2606 53.6595 24.0673 53.662 23.874C53.6544 23.5472 53.6857 23.2205 53.755 22.901C53.4483 22.9297 52.851 22.957 51.963 22.983ZM150.215 8.81302C150.238 7.98702 150.289 7.15702 150.366 6.32302C149.791 6.41075 149.21 6.44955 148.629 6.43902C148.274 6.43902 147.949 6.42736 147.656 6.40402C147.363 6.38069 147.108 6.35369 146.892 6.32302C146.969 7.15702 147.019 7.98702 147.042 8.81302C147.065 9.63902 147.077 10.523 147.077 11.465V12.392C147.077 13.334 147.065 14.2217 147.042 15.055C147.019 15.8884 146.969 16.6914 146.892 17.464C147.145 17.4304 147.401 17.4147 147.656 17.417H149.613C149.865 17.4138 150.117 17.4296 150.366 17.464C150.288 16.692 150.238 15.889 150.215 15.055C150.192 14.221 150.181 13.3334 150.18 12.392V11.465C150.181 10.5237 150.192 9.63969 150.215 8.81302ZM144.089 6.43902C143.934 6.43895 143.779 6.42725 143.626 6.40402C143.471 6.38136 143.309 6.35436 143.14 6.32302C142.692 7.68236 142.24 9.03336 141.785 10.376C141.33 11.7187 140.855 13.0697 140.361 14.429H140.315C139.867 13.0704 139.431 11.7194 139.006 10.376C138.581 9.03269 138.16 7.68169 137.743 6.32302C137.45 6.35436 137.16 6.38136 136.875 6.40402C136.59 6.42669 136.3 6.43836 136.006 6.43902C135.713 6.43902 135.415 6.42736 135.114 6.40402C134.813 6.38069 134.5 6.35369 134.176 6.32302C134.392 6.89436 134.662 7.62769 134.987 8.52302C135.312 9.41836 135.659 10.3797 136.029 11.407C136.4 12.4344 136.774 13.4807 137.152 14.546C137.53 15.6114 137.874 16.584 138.183 17.464C138.39 17.4334 138.599 17.4177 138.808 17.417H140.059C140.269 17.4177 140.478 17.4334 140.685 17.464C141.04 16.306 141.422 15.1827 141.831 14.094C142.24 13.0054 142.64 11.9864 143.031 11.037C143.425 10.087 143.799 9.21469 144.154 8.42002C144.509 7.62536 144.809 6.92536 145.054 6.32002C144.869 6.35136 144.699 6.37836 144.544 6.40102C144.393 6.42486 144.241 6.43756 144.089 6.43902ZM126.324 27.783C126.169 27.7829 126.014 27.7712 125.861 27.748C125.706 27.7247 125.544 27.6977 125.375 27.667C124.927 29.0264 124.475 30.3774 124.02 31.72C123.565 33.0627 123.09 34.4137 122.596 35.773H122.55C122.102 34.4144 121.666 33.0634 121.241 31.72C120.816 30.3767 120.396 29.0257 119.979 27.667C119.686 27.6984 119.396 27.7254 119.111 27.748C118.826 27.7707 118.536 27.7824 118.243 27.783C117.95 27.783 117.652 27.7714 117.351 27.748C117.05 27.7247 116.737 27.6977 116.413 27.667C116.629 28.2384 116.899 28.9717 117.224 29.867C117.549 30.7624 117.896 31.7237 118.266 32.751C118.637 33.7777 119.011 34.8237 119.389 35.889C119.767 36.9544 120.111 37.9274 120.42 38.808C120.627 38.7773 120.836 38.7616 121.045 38.761H122.295C122.504 38.7617 122.713 38.7774 122.92 38.808C123.275 37.65 123.657 36.5267 124.066 35.438C124.475 34.3494 124.875 33.3304 125.266 32.381C125.659 31.431 126.034 30.5587 126.389 29.764C126.744 28.9694 127.044 28.2694 127.289 27.664C127.104 27.6954 126.934 27.7224 126.779 27.745C126.628 27.7688 126.476 27.7815 126.324 27.783ZM133.504 27.366C132.773 27.359 132.047 27.4847 131.361 27.737C130.718 27.976 130.137 28.356 129.661 28.849C129.16 29.3802 128.777 30.0118 128.538 30.702C128.252 31.5441 128.115 32.4298 128.133 33.319C128.111 34.2164 128.265 35.1094 128.585 35.948C128.856 36.6369 129.275 37.2577 129.813 37.766C130.326 38.2426 130.942 38.5952 131.613 38.797C132.311 39.0084 133.037 39.1139 133.767 39.11C134.487 39.1315 135.206 39.0418 135.898 38.844C136.397 38.6879 136.867 38.4492 137.288 38.138L137.797 36.838L137.519 36.629C136.726 37.3089 135.714 37.679 134.67 37.671C134.189 37.6819 133.714 37.566 133.292 37.335C132.897 37.1101 132.563 36.7918 132.319 36.408C132.049 35.9782 131.857 35.5044 131.751 35.008C131.624 34.4378 131.562 33.8551 131.566 33.271H138.214C138.234 33.1797 138.241 33.0863 138.237 32.993V32.507C138.325 31.1324 137.891 29.7751 137.021 28.707C136.566 28.2428 136.017 27.8826 135.409 27.6515C134.802 27.4203 134.152 27.3236 133.504 27.368V27.366ZM131.558 32.23C131.574 31.7763 131.616 31.3238 131.685 30.875C131.745 30.456 131.85 30.0447 131.998 29.648C132.118 29.3147 132.308 29.0107 132.554 28.756C132.666 28.6427 132.799 28.5534 132.947 28.4937C133.094 28.434 133.252 28.4052 133.411 28.409C133.711 28.4138 134.001 28.5191 134.234 28.708C134.466 28.897 134.629 29.1586 134.696 29.451C134.984 30.3491 135.129 31.2869 135.125 32.23H131.558ZM174.995 15.783C174.972 15.2037 174.96 14.667 174.96 14.173C174.96 13.573 174.975 12.971 175.006 12.367C175.037 11.763 175.052 11.068 175.052 10.282C175.156 9.11801 174.822 7.95705 174.114 7.02702C173.765 6.67915 173.346 6.40946 172.885 6.23585C172.424 6.06224 171.931 5.98867 171.439 6.02002C170.742 6.0081 170.056 6.19282 169.459 6.55302C168.85 6.93798 168.332 7.45167 167.942 8.05802H167.895L167.988 6.32102C167.679 6.35236 167.39 6.37936 167.12 6.40202C166.85 6.42469 166.576 6.43636 166.298 6.43702C166.02 6.43702 165.746 6.42536 165.476 6.40202C165.206 6.37869 164.932 6.35169 164.654 6.32102C164.731 7.15502 164.781 7.98502 164.804 8.81102C164.827 9.63702 164.839 10.521 164.839 11.463V12.39C164.839 13.332 164.827 14.2197 164.804 15.053C164.781 15.8864 164.731 16.6894 164.654 17.462C164.907 17.4284 165.163 17.4127 165.418 17.415H167.375C167.627 17.4118 167.879 17.4275 168.128 17.462C168.051 16.69 168.001 15.887 167.978 15.053C167.955 14.219 167.944 13.3314 167.943 12.39V11.463C167.901 10.6027 168.067 9.74487 168.429 8.96302C168.571 8.70864 168.773 8.49338 169.019 8.33655C169.264 8.17972 169.544 8.08621 169.835 8.06441C170.125 8.0426 170.416 8.09319 170.682 8.21162C170.948 8.33006 171.181 8.51265 171.359 8.74302C171.741 9.38909 171.915 10.1367 171.859 10.885C171.859 12.2904 171.844 13.5374 171.813 14.626C171.792 15.5747 171.722 16.5216 171.604 17.463C171.857 17.4283 172.113 17.4126 172.368 17.416H174.313C174.568 17.4126 174.824 17.4283 175.077 17.463C175.048 16.9237 175.02 16.3637 174.995 15.783ZM148.625 0.114023C148.205 0.117141 147.799 0.265666 147.475 0.534357C147.152 0.803048 146.932 1.17533 146.853 1.58794C146.773 2.00055 146.838 2.42803 147.038 2.79774C147.238 3.16746 147.56 3.45659 147.948 3.61601C148.337 3.77543 148.769 3.7953 149.171 3.67224C149.573 3.54919 149.92 3.2908 150.153 2.94099C150.386 2.59118 150.49 2.17153 150.449 1.75334C150.407 1.33516 150.222 0.944241 149.925 0.647023C149.757 0.474814 149.555 0.338872 149.332 0.247555C149.109 0.156237 148.87 0.111476 148.629 0.116023L148.625 0.114023ZM162.012 16.397C161.89 16.2631 161.806 16.0992 161.769 15.922C161.707 15.6367 161.68 15.3449 161.688 15.053C161.688 14.2197 161.7 13.382 161.723 12.54C161.746 11.698 161.758 10.783 161.758 9.79502C161.774 9.2007 161.667 8.60948 161.445 8.05802C161.253 7.60134 160.95 7.19937 160.565 6.88802C160.168 6.57763 159.71 6.35291 159.222 6.22802C158.667 6.08465 158.095 6.01472 157.522 6.02002C156.758 6.0243 156.001 6.16554 155.287 6.43702C154.526 6.71951 153.817 7.12489 153.187 7.63702L153.487 9.02702H153.649C153.775 8.83929 153.936 8.67794 154.124 8.55202C154.344 8.39852 154.577 8.26307 154.819 8.14702C155.075 8.0229 155.343 7.92571 155.619 7.85702C155.884 7.79059 156.157 7.75701 156.43 7.75702C156.728 7.73992 157.026 7.78348 157.307 7.88507C157.588 7.98665 157.845 8.14415 158.063 8.34802C158.254 8.53242 158.404 8.75391 158.506 8.99883C158.608 9.24374 158.658 9.50688 158.654 9.77202C158.659 9.94556 158.631 10.1185 158.573 10.282C158.497 10.4446 158.372 10.5786 158.214 10.664C157.948 10.8142 157.664 10.9311 157.369 11.012C156.99 11.128 156.477 11.263 155.829 11.417C155.346 11.5273 154.873 11.6785 154.416 11.869C154.025 12.0312 153.661 12.2539 153.339 12.529C153.039 12.7897 152.802 13.1144 152.644 13.479C152.473 13.8975 152.39 14.347 152.401 14.799C152.401 15.1734 152.464 15.5451 152.586 15.899C152.71 16.2626 152.911 16.5947 153.177 16.872C153.465 17.1692 153.818 17.3952 154.208 17.532C154.693 17.6968 155.202 17.775 155.714 17.763C156.334 17.7859 156.948 17.6334 157.486 17.323C157.973 17.0147 158.394 16.6134 158.725 16.142C158.874 16.6118 159.156 17.0285 159.536 17.342C159.938 17.635 160.429 17.782 160.926 17.759C161.264 17.762 161.601 17.7151 161.926 17.62C162.235 17.5274 162.613 17.3884 163.061 17.203V16.647C162.855 16.6494 162.65 16.634 162.447 16.601C162.286 16.5807 162.135 16.51 162.016 16.399L162.012 16.397ZM158.688 12.425C158.68 12.7724 158.676 13.278 158.677 13.942C158.721 14.551 158.553 15.1564 158.202 15.656C158.055 15.8423 157.866 15.9916 157.651 16.0921C157.436 16.1926 157.2 16.2415 156.963 16.235C156.778 16.2412 156.595 16.2035 156.428 16.1249C156.261 16.0463 156.115 15.9291 156.002 15.783C155.738 15.3996 155.612 14.9384 155.643 14.474C155.615 14.0084 155.715 13.5438 155.932 13.131C156.116 12.831 156.37 12.5805 156.673 12.401C156.989 12.2173 157.324 12.0697 157.673 11.961C158.032 11.847 158.377 11.6955 158.704 11.509C158.704 11.773 158.701 12.0787 158.695 12.426L158.688 12.425ZM102.254 3.84402C102.285 2.57736 102.331 1.29569 102.393 -0.000976562C101.495 0.119752 100.587 0.146898 99.683 0.0800234C99.4274 0.06281 99.1725 0.0357901 98.919 -0.000976562C98.9803 1.31169 99.0267 2.58169 99.058 3.80902C99.0893 5.03636 99.1047 6.34502 99.104 7.73502H99.058C98.7752 7.22023 98.354 6.79486 97.842 6.50702C97.2762 6.17816 96.6313 6.01011 95.977 6.02102C95.3664 6.01925 94.7651 6.17053 94.228 6.46102C93.6726 6.76092 93.1872 7.17541 92.804 7.67702C92.3848 8.22804 92.0634 8.84707 91.854 9.50702C91.6166 10.2503 91.4994 11.0268 91.507 11.807C91.5018 12.5939 91.5874 13.3788 91.762 14.146C91.9104 14.8209 92.1772 15.4642 92.55 16.046C92.8926 16.5747 93.3627 17.0087 93.917 17.308C94.5403 17.6249 95.2331 17.7803 95.932 17.76C96.6774 17.8027 97.4166 17.6039 98.04 17.193C98.5779 16.7745 98.9926 16.2181 99.24 15.583L99.286 15.63C99.286 15.6767 99.2783 15.7924 99.263 15.977C99.2477 16.1617 99.2283 16.3617 99.205 16.577C99.1817 16.793 99.1623 16.986 99.147 17.156C99.1432 17.2575 99.1278 17.3581 99.101 17.456C99.3191 17.4198 99.54 17.4041 99.761 17.409H101.625C101.88 17.4056 102.136 17.4214 102.389 17.456C102.327 16.2054 102.281 14.947 102.25 13.681C102.219 12.415 102.204 11.0254 102.204 9.51202V8.00702C102.209 6.49836 102.228 5.11102 102.259 3.84502L102.254 3.84402ZM98.495 15.321C98.3607 15.6283 98.1432 15.892 97.867 16.0823C97.5908 16.2726 97.267 16.3819 96.932 16.398C96.6653 16.3971 96.4043 16.3208 96.179 16.178C95.9087 15.9972 95.6894 15.7499 95.542 15.46C95.3293 15.0487 95.1809 14.6073 95.102 14.151C94.8749 12.7619 94.8867 11.3442 95.137 9.95902C95.2333 9.47015 95.4018 8.99832 95.637 8.55902C95.7918 8.26005 96.0238 8.00798 96.309 7.82902C96.5337 7.69642 96.7891 7.62473 97.05 7.62102C97.3638 7.63217 97.6684 7.73002 97.93 7.9037C98.1916 8.07739 98.3999 8.32014 98.532 8.60502C98.985 9.58594 99.1841 10.665 99.111 11.743C99.1954 12.9678 98.9842 14.195 98.495 15.321ZM89.404 14.175C89.404 13.575 89.4193 12.973 89.45 12.369C89.4807 11.765 89.496 11.07 89.496 10.284C89.6004 9.12 89.2658 7.95901 88.558 7.02902C88.209 6.68115 87.79 6.41146 87.3288 6.23785C86.8676 6.06424 86.3748 5.99067 85.883 6.02202C85.186 6.01015 84.4998 6.19487 83.903 6.55502C83.2935 6.93993 82.7757 7.45363 82.386 8.06002H82.34L82.433 6.32302C82.1237 6.35436 81.834 6.38136 81.564 6.40402C81.294 6.42669 81.02 6.43836 80.742 6.43902C80.464 6.43902 80.19 6.42736 79.92 6.40402C79.65 6.38069 79.376 6.35369 79.098 6.32302C79.1753 7.15702 79.2253 7.98702 79.248 8.81302C79.2707 9.63902 79.2823 10.523 79.283 11.465V12.392C79.283 13.334 79.2713 14.2217 79.248 15.055C79.2247 15.8884 79.1747 16.6914 79.098 17.464C79.3512 17.4304 79.6065 17.4147 79.862 17.417H81.819C82.0708 17.4138 82.3225 17.4295 82.572 17.464C82.4947 16.692 82.4443 15.889 82.421 15.055C82.3977 14.221 82.386 13.3334 82.386 12.392V11.465C82.3436 10.6047 82.5103 9.74683 82.872 8.96502C83.0137 8.71064 83.2163 8.49538 83.4616 8.33855C83.707 8.18172 83.9874 8.08821 84.2778 8.06641C84.5682 8.0446 84.8594 8.09519 85.1254 8.21362C85.3914 8.33206 85.6239 8.51465 85.802 8.74502C86.1838 9.39109 86.3583 10.1387 86.302 10.887C86.302 12.2924 86.2867 13.5394 86.256 14.628C86.2353 15.5767 86.1655 16.5236 86.047 17.465C86.3001 17.4303 86.5555 17.4146 86.811 17.418H88.756C89.0115 17.4146 89.2669 17.4303 89.52 17.465C89.4887 16.925 89.4617 16.3654 89.439 15.786C89.4163 15.2067 89.4047 14.6697 89.404 14.175ZM117.997 8.74402C118.379 9.39011 118.553 10.1377 118.497 10.886C118.497 12.2914 118.482 13.5384 118.451 14.627C118.43 15.5756 118.361 16.5226 118.243 17.464C118.496 17.4293 118.752 17.4136 119.007 17.417H120.953C121.208 17.4136 121.464 17.4293 121.717 17.464C121.686 16.924 121.659 16.3644 121.636 15.785C121.613 15.2057 121.602 14.669 121.601 14.175C121.601 13.575 121.616 12.973 121.647 12.369C121.678 11.765 121.693 11.07 121.693 10.284C121.797 9.11999 121.463 7.95897 120.755 7.02902C120.406 6.6811 119.987 6.41138 119.526 6.23776C119.065 6.06415 118.572 5.99061 118.08 6.02202C117.383 6.01015 116.697 6.19487 116.1 6.55502C115.49 6.93985 114.973 7.45357 114.583 8.06002H114.537L114.629 6.32302C114.32 6.35436 114.031 6.38136 113.761 6.40402C113.491 6.42669 113.217 6.43836 112.939 6.43902C112.661 6.43902 112.387 6.42736 112.117 6.40402C111.847 6.38069 111.573 6.35369 111.295 6.32302C111.372 7.15702 111.422 7.98702 111.445 8.81302C111.468 9.63902 111.48 10.523 111.48 11.465V12.392C111.48 13.334 111.468 14.2217 111.445 15.055C111.422 15.8884 111.372 16.6914 111.295 17.464C111.548 17.4304 111.804 17.4147 112.059 17.417H114.016C114.268 17.4138 114.52 17.4295 114.769 17.464C114.692 16.692 114.642 15.889 114.619 15.055C114.596 14.221 114.585 13.3334 114.584 12.392V11.465C114.541 10.6047 114.708 9.7468 115.07 8.96502C115.212 8.71064 115.414 8.49538 115.66 8.33855C115.905 8.18172 116.185 8.08821 116.476 8.06641C116.766 8.0446 117.057 8.09519 117.323 8.21362C117.589 8.33206 117.822 8.51465 118 8.74502L117.997 8.74402ZM108.744 37.861C108.52 37.8694 108.297 37.8216 108.096 37.722C107.903 37.5996 107.762 37.4096 107.702 37.189C107.589 36.8204 107.521 36.4392 107.502 36.054C107.463 35.56 107.444 34.9114 107.444 34.108C107.444 33.7994 107.448 33.421 107.456 32.973C107.464 32.525 107.472 32.0617 107.479 31.583C107.487 31.1044 107.502 30.6334 107.525 30.17C107.548 29.7067 107.575 29.2974 107.606 28.942L109.644 28.988C109.597 28.7986 109.574 28.6041 109.575 28.409C109.577 28.1989 109.601 27.9896 109.644 27.784L107.606 27.83C107.606 27.4907 107.61 27.1317 107.618 26.753C107.626 26.3744 107.641 26.0037 107.664 25.641C107.687 25.2784 107.71 24.931 107.733 24.599C107.756 24.267 107.783 23.9774 107.814 23.73L107.583 23.568C107.058 23.8307 106.533 24.0817 106.008 24.321C105.483 24.5604 104.95 24.788 104.408 25.004C104.439 25.5914 104.462 26.0934 104.477 26.51C104.492 26.9267 104.5 27.3744 104.5 27.853L102.879 27.784C102.922 27.9896 102.945 28.1989 102.948 28.409C102.949 28.6041 102.926 28.7986 102.879 28.988L104.5 28.965C104.5 29.4597 104.492 29.9964 104.477 30.575C104.462 31.1537 104.442 31.7404 104.419 32.335C104.396 32.9297 104.376 33.5087 104.361 34.072C104.346 34.6354 104.338 35.141 104.338 35.589C104.338 37.9364 105.319 39.11 107.28 39.11C107.74 39.1085 108.199 39.0542 108.647 38.948C109.044 38.8616 109.432 38.7377 109.805 38.578V37.628C109.673 37.7024 109.533 37.7608 109.388 37.802C109.177 37.848 108.96 37.8678 108.744 37.861ZM100.95 30.161C100.973 29.335 101.024 28.505 101.101 27.671C100.884 27.7024 100.63 27.7294 100.337 27.752C100.044 27.7747 99.72 27.7864 99.364 27.787C98.7828 27.7974 98.2017 27.7586 97.627 27.671C97.7037 28.505 97.7537 29.335 97.777 30.161C97.8003 30.987 97.812 31.871 97.812 32.813V33.74C97.8545 34.6004 97.6878 35.4582 97.326 36.24C97.1843 36.4944 96.9817 36.7097 96.7364 36.8665C96.491 37.0233 96.2106 37.1168 95.9202 37.1386C95.6298 37.1604 95.3386 37.1099 95.0726 36.9914C94.8066 36.873 94.5741 36.6904 94.396 36.46C94.0141 35.814 93.8396 35.0664 93.896 34.318C93.896 32.9127 93.9113 31.662 93.942 30.566C93.9727 29.47 94.042 28.5034 94.15 27.666C93.95 27.6974 93.6953 27.7244 93.386 27.747C93.0767 27.7697 92.7523 27.7814 92.413 27.782C92.073 27.782 91.7487 27.7704 91.44 27.747C91.1313 27.7237 90.8767 27.6967 90.676 27.666C90.7067 28.2527 90.7337 28.8357 90.757 29.415C90.7803 29.9944 90.792 30.531 90.792 31.025C90.792 31.625 90.7767 32.227 90.746 32.831C90.7153 33.435 90.7 34.1297 90.7 34.915C90.5907 36.0687 90.9263 37.2205 91.638 38.135C91.9924 38.4733 92.4131 38.7344 92.8735 38.9019C93.3339 39.0694 93.8241 39.1395 94.313 39.108C95.0056 39.1197 95.6889 38.9471 96.293 38.608C96.9065 38.2428 97.426 37.739 97.81 37.137H97.856L97.763 38.805C98.0514 38.7747 98.3411 38.7591 98.631 38.758H100.275C100.55 38.7583 100.824 38.774 101.097 38.805C101.02 38.033 100.969 37.23 100.946 36.396C100.923 35.562 100.911 34.674 100.911 33.732V32.805C100.914 31.8677 100.927 30.9857 100.95 30.159V30.161ZM113.26 21.461C112.84 21.4641 112.434 21.6127 112.11 21.8814C111.787 22.15 111.567 22.5223 111.488 22.9349C111.408 23.3475 111.473 23.775 111.673 24.1447C111.873 24.5145 112.195 24.8036 112.583 24.963C112.972 25.1224 113.404 25.1423 113.806 25.0192C114.208 24.8962 114.555 24.6378 114.788 24.288C115.021 23.9382 115.125 23.5185 115.084 23.1003C115.042 22.6822 114.857 22.2912 114.56 21.994C114.391 21.8211 114.189 21.6846 113.965 21.5931C113.742 21.5016 113.502 21.457 113.26 21.462V21.461ZM114.847 30.161C114.87 29.335 114.92 28.505 114.997 27.671C114.422 27.7586 113.841 27.7974 113.26 27.787C112.905 27.787 112.58 27.7754 112.287 27.752C111.994 27.7287 111.739 27.7017 111.523 27.671C111.6 28.505 111.651 29.335 111.674 30.161C111.697 30.987 111.709 31.871 111.709 32.813V33.74C111.709 34.682 111.697 35.57 111.674 36.404C111.651 37.238 111.6 38.041 111.523 38.813C111.776 38.7793 112.032 38.7636 112.287 38.766H114.244C114.496 38.7628 114.748 38.7785 114.997 38.813C114.92 38.041 114.87 37.238 114.847 36.404C114.824 35.57 114.813 34.682 114.812 33.74V32.813C114.812 31.8704 114.824 30.9857 114.847 30.159V30.161Z" fill="black"/>
</g>
<defs>
<clipPath id="clip0_523_16">
<rect width="175.079" height="39.111" fill="white"/>
</clipPath>
</defs>
</svg>
