<svg width="171" height="64" viewBox="0 0 171 64" fill="none" xmlns="http://www.w3.org/2000/svg">
<path fill-rule="evenodd" clip-rule="evenodd" d="M9.18927 54.888L7.66652 56.4076V63.5052H7.23389V47.2908H7.66652V55.7954L16.1926 47.2908H16.8296L9.50648 54.5921L18.4429 63.5052H17.8299L9.18927 54.888Z" fill="black"/>
<path fill-rule="evenodd" clip-rule="evenodd" d="M31.0167 63.0745V63.5052H20.7183V47.2908H21.1492V63.0745H31.0167Z" fill="black"/>
<path fill-rule="evenodd" clip-rule="evenodd" d="M36.3145 63.4923H36.7462V47.3043H36.3145V63.4923Z" fill="black"/>
<path fill-rule="evenodd" clip-rule="evenodd" d="M60.5723 63.4923H61.0049V47.3043H60.5723V63.4923Z" fill="black"/>
<path fill-rule="evenodd" clip-rule="evenodd" d="M55.0507 47.2908V63.5052H54.5958L42.4762 48.0608V63.5052H42.0444V47.2908H42.4762L54.5958 62.7564V47.2908H55.0507Z" fill="black"/>
<path fill-rule="evenodd" clip-rule="evenodd" d="M68.0322 54.888L66.5086 56.4076V63.5052H66.0776V47.2908H66.5086V55.7954L75.0355 47.2908H75.6724L68.3502 54.5921L77.2875 63.5052H76.6745L68.0322 54.888Z" fill="black"/>
<path fill-rule="evenodd" clip-rule="evenodd" d="M79.9921 47.7206V55.1839H87.1553V55.6137H79.9921V63.0745H89.7921V63.5052H79.562V47.2908H89.7921V47.7206H79.9921Z" fill="black"/>
<path fill-rule="evenodd" clip-rule="evenodd" d="M105.071 47.2908V63.5052H104.617L92.4972 48.0608V63.5052H92.0654V47.2908H92.4972L104.617 62.7564V47.2908H105.071Z" fill="black"/>
<path fill-rule="evenodd" clip-rule="evenodd" d="M108.321 63.0515C108.321 63.1726 108.279 63.2783 108.185 63.367C108.095 63.4608 107.99 63.5052 107.868 63.5052C107.747 63.5052 107.642 63.4608 107.55 63.367C107.458 63.2783 107.412 63.1726 107.412 63.0515C107.412 62.9313 107.458 62.8272 107.55 62.7453C107.642 62.6618 107.747 62.6208 107.868 62.6208C107.99 62.6208 108.095 62.6618 108.185 62.7453C108.279 62.8272 108.321 62.9313 108.321 63.0515Z" fill="black"/>
<path fill-rule="evenodd" clip-rule="evenodd" d="M126.965 56.8596C126.8 57.8121 126.475 58.6947 125.989 59.5023C125.503 60.3099 124.908 61.0117 124.205 61.6001C123.499 62.1894 122.703 62.6541 121.818 62.9944C120.93 63.3346 119.987 63.5052 118.986 63.5052C117.865 63.5052 116.811 63.2928 115.826 62.8707C114.84 62.446 113.98 61.8679 113.244 61.1353C112.51 60.4028 111.93 59.5441 111.505 58.5609C111.08 57.5793 110.87 56.5279 110.87 55.4091C110.87 54.2902 111.08 53.2354 111.505 52.2453C111.93 51.2561 112.51 50.394 113.244 49.6597C113.98 48.9272 114.84 48.3499 115.826 47.9252C116.811 47.5023 117.865 47.2908 118.986 47.2908C119.987 47.2908 120.93 47.4605 121.818 47.8007C122.703 48.1401 123.499 48.61 124.205 49.2061C124.908 49.8047 125.503 50.5065 125.989 51.3149C126.475 52.1242 126.8 52.9974 126.965 53.9355H126.535C126.368 53.058 126.052 52.2368 125.592 51.4753C125.129 50.712 124.564 50.0546 123.896 49.502C123.23 48.9494 122.476 48.5162 121.636 48.199C120.793 47.88 119.91 47.7206 118.986 47.7206C117.926 47.7206 116.929 47.9218 115.996 48.3226C115.065 48.7226 114.249 49.2709 113.553 49.965C112.854 50.6617 112.305 51.4787 111.904 52.415C111.501 53.353 111.3 54.3508 111.3 55.4091C111.3 56.4673 111.501 57.4608 111.904 58.3903C112.305 59.3207 112.854 60.1333 113.553 60.8301C114.249 61.5251 115.065 62.0734 115.996 62.4733C116.929 62.8733 117.926 63.0745 118.986 63.0745C119.91 63.0745 120.793 62.9142 121.636 62.5978C122.476 62.2789 123.23 61.8457 123.896 61.2948C124.564 60.7414 125.129 60.0873 125.592 59.3335C126.052 58.5771 126.368 57.7516 126.535 56.8596H126.965Z" fill="black"/>
<path fill-rule="evenodd" clip-rule="evenodd" d="M137.357 47.7206C136.297 47.7206 135.299 47.9218 134.368 48.3235C133.435 48.7226 132.621 49.2709 131.924 49.965C131.227 50.6617 130.676 51.4787 130.275 52.415C129.874 53.353 129.672 54.3508 129.672 55.4099C129.672 56.4673 129.874 57.4608 130.275 58.3895C130.676 59.3198 131.227 60.1342 131.924 60.8309C132.621 61.5242 133.435 62.0734 134.368 62.4733C135.299 62.8741 136.297 63.0745 137.357 63.0745C138.42 63.0745 139.415 62.8741 140.348 62.4733C141.281 62.0734 142.094 61.5242 142.792 60.8309C143.489 60.1342 144.039 59.3198 144.442 58.3895C144.842 57.4608 145.044 56.4673 145.044 55.4099C145.044 54.3508 144.842 53.353 144.442 52.415C144.039 51.4787 143.489 50.6617 142.792 49.965C142.094 49.2709 141.281 48.7226 140.348 48.3235C139.415 47.9218 138.42 47.7206 137.357 47.7206ZM137.357 63.5052C136.235 63.5052 135.184 63.2928 134.197 62.8707C133.212 62.4469 132.353 61.8687 131.616 61.1353C130.881 60.4028 130.301 59.5432 129.878 58.5617C129.453 57.5785 129.241 56.5279 129.241 55.4099C129.241 54.2911 129.453 53.2362 129.878 52.2453C130.301 51.2561 130.881 50.394 131.616 49.6597C132.353 48.9272 133.212 48.349 134.197 47.9252C135.184 47.5023 136.235 47.2908 137.357 47.2908C138.481 47.2908 139.532 47.5023 140.518 47.9252C141.503 48.349 142.364 48.9272 143.099 49.6597C143.834 50.394 144.413 51.2561 144.838 52.2453C145.263 53.2362 145.475 54.2911 145.475 55.4099C145.475 56.5279 145.263 57.5785 144.838 58.5617C144.413 59.5432 143.834 60.4028 143.099 61.1353C142.364 61.8687 141.503 62.4469 140.518 62.8707C139.532 63.2928 138.481 63.5052 137.357 63.5052Z" fill="black"/>
<path fill-rule="evenodd" clip-rule="evenodd" d="M163.324 47.2908V63.5052H162.891V48.3789L155.751 63.5052H155.275L148.182 48.3789V63.5052H147.749V47.2908H148.182L155.525 62.962L162.891 47.2908H163.324Z" fill="black"/>
<path fill-rule="evenodd" clip-rule="evenodd" d="M27.1032 37.5241C28.1831 37.0585 29.1201 36.4198 29.9144 35.6114C30.7053 34.8013 31.3363 33.8683 31.8048 32.8075C32.2742 31.7484 32.5077 30.6057 32.5077 29.3854C32.5077 28.1634 32.2742 27.0113 31.8048 25.9342C31.3363 24.8555 30.7053 23.9115 29.9144 23.1031C29.1201 22.2947 28.1831 21.6568 27.1032 21.1895C26.0216 20.723 24.8682 20.4885 23.643 20.4885H8.72498V38.2259H23.643C24.8682 38.2259 26.0216 37.9923 27.1032 37.5241ZM8.72498 19.4644H21.5893C22.8145 19.4644 23.9577 19.2307 25.023 18.7642C26.084 18.2969 27.0126 17.6582 27.806 16.8498C28.5977 16.0414 29.2287 15.1067 29.6964 14.0468C30.165 12.9859 30.4009 11.8458 30.4009 10.6221C30.4009 9.40177 30.165 8.25055 29.6964 7.17266C29.2287 6.09477 28.5977 5.15076 27.806 4.34234C27.0126 3.53307 26.084 2.89521 25.023 2.42875C23.9577 1.96144 22.8145 1.72778 21.5893 1.72778H8.72498V19.4644ZM25.5899 19.6264C26.7073 19.8421 27.7513 20.2463 28.7243 20.839C29.6964 21.4325 30.5446 22.1599 31.2653 23.0221C31.9853 23.8851 32.5436 24.8555 32.9403 25.9342C33.337 27.0113 33.5345 28.1634 33.5345 29.3854C33.5345 30.7498 33.2737 32.0366 32.7513 33.2381C32.2289 34.4439 31.5261 35.486 30.6438 36.3661C29.7605 37.247 28.7157 37.9496 27.5085 38.469C26.3004 38.9892 25.0119 39.251 23.643 39.251H7.69727V0.703613H21.5893C22.9582 0.703613 24.2466 0.965412 25.4539 1.48389C26.6612 2.00663 27.7051 2.71698 28.59 3.61494C29.4716 4.5129 30.1761 5.5652 30.6976 6.76845C31.22 7.97255 31.4808 9.25766 31.4808 10.6221C31.4808 12.6371 30.9319 14.4518 29.8332 16.0678C28.7328 17.6863 27.3195 18.8725 25.5899 19.6264Z" fill="black"/>
<path fill-rule="evenodd" clip-rule="evenodd" d="M39.9677 1.72863V19.4652H56.9933V20.4894H39.9677V38.2268H63.2647V39.2501H38.9399V0.703613H63.2647V1.72863H39.9677Z" fill="black"/>
<path fill-rule="evenodd" clip-rule="evenodd" d="M93.6034 38.2259V39.2501H69.1162V0.703613H70.1431V38.2259H93.6034Z" fill="black"/>
<path fill-rule="evenodd" clip-rule="evenodd" d="M123.494 38.2259V39.2501H99.0073V0.703613H100.033V38.2259H123.494Z" fill="black"/>
<path fill-rule="evenodd" clip-rule="evenodd" d="M155.247 25.2879L144.977 1.99725L134.707 25.2879H155.247ZM155.679 26.3649H134.273L128.544 39.2501H127.409L144.381 0.703613H145.518L162.544 39.2501H161.409L155.679 26.3649Z" fill="black"/>
<path fill-rule="evenodd" clip-rule="evenodd" d="M9.23217 18.9586H21.5895C22.7378 18.9586 23.8236 18.7369 24.8188 18.302C25.8149 17.8628 26.699 17.2556 27.4445 16.4967C28.1901 15.736 28.7911 14.8423 29.234 13.8429C29.6718 12.8511 29.8932 11.7673 29.8932 10.622C29.8932 9.47762 29.6709 8.38438 29.2323 7.37386C28.7903 6.35822 28.1892 5.456 27.4437 4.69534C26.6998 3.93723 25.8157 3.33007 24.818 2.89089C23.8236 2.45513 22.7378 2.23342 21.5895 2.23342H9.23217V18.9586ZM21.5895 19.97H8.21814V1.22204H21.5895C22.8788 1.22204 24.1023 1.47275 25.2267 1.9648C26.3441 2.45684 27.3342 3.1382 28.1687 3.9884C29.0006 4.83945 29.6718 5.8423 30.1626 6.97135C30.6568 8.10979 30.9073 9.33862 30.9073 10.622C30.9073 11.9097 30.6559 13.1291 30.1617 14.2505C29.6692 15.3625 28.9998 16.356 28.1687 17.2036C27.3325 18.0555 26.3433 18.736 25.2267 19.2264C24.1015 19.7201 22.8788 19.97 21.5895 19.97ZM9.23217 37.7211H23.6432C24.794 37.7211 25.8901 37.4985 26.9016 37.0602C27.9156 36.6236 28.8065 36.0164 29.5512 35.2583C30.2994 34.4942 30.9004 33.6005 31.3416 32.6036C31.7802 31.6136 32.0017 30.5306 32.0017 29.3853C32.0017 28.2366 31.7785 27.1434 31.3408 26.1346C30.8979 25.1181 30.2977 24.2176 29.5512 23.4569C28.8091 22.6997 27.9173 22.0934 26.9016 21.6525C25.8876 21.2167 24.7906 20.995 23.6432 20.995H9.23217V37.7211ZM23.6432 38.7316H8.21814V19.9828H23.6432C24.93 19.9828 26.162 20.2335 27.3043 20.7247C28.4423 21.2176 29.4418 21.8989 30.2771 22.75C31.1082 23.5993 31.7802 24.603 32.271 25.7329C32.7652 26.8688 33.0157 28.0976 33.0157 29.3853C33.0157 30.673 32.7643 31.8924 32.2693 33.0121C31.7802 34.119 31.1091 35.1133 30.2771 35.9644C29.4392 36.818 28.4397 37.4993 27.3052 37.988C26.1654 38.4817 24.9334 38.7316 23.6432 38.7316ZM8.20531 38.7444H23.6432C24.9342 38.7444 26.1672 38.4954 27.306 38.0042C28.4483 37.5138 29.4495 36.8419 30.2857 36.0087C31.1202 35.1764 31.7922 34.1761 32.2864 33.0377C32.778 31.9044 33.0277 30.6747 33.0277 29.3853C33.0277 28.2273 32.8379 27.1246 32.4642 26.1082C32.0897 25.09 31.5554 24.1605 30.8756 23.3461C30.1933 22.53 29.3811 21.8316 28.4603 21.2713C27.5446 20.7119 26.5459 20.3256 25.4934 20.1226L23.8946 19.8131L25.3865 19.1624C27.0187 18.4512 28.3739 17.3145 29.4127 15.7838C30.449 14.2599 30.974 12.5237 30.974 10.622C30.974 9.33521 30.7252 8.10638 30.2318 6.96965C29.7368 5.8278 29.063 4.81899 28.2277 3.96793C27.3932 3.12114 26.392 2.44149 25.2532 1.94774C24.1117 1.4574 22.8788 1.20925 21.5895 1.20925H8.20531V38.7444ZM23.6432 39.7549H7.19043V0.197876H21.5895C23.0173 0.197876 24.3853 0.474171 25.655 1.01994C26.9161 1.5657 28.0242 2.31869 28.9519 3.26014C29.8744 4.19988 30.6174 5.31273 31.1629 6.56714C31.711 7.83179 31.988 9.19535 31.988 10.622C31.988 12.73 31.404 14.6581 30.2523 16.3517C29.3674 17.6547 28.2722 18.7011 26.988 19.4737C27.6856 19.709 28.356 20.0212 28.9895 20.4075C30.0044 21.0266 30.9004 21.7983 31.6554 22.6988C32.4087 23.6019 33.002 24.6312 33.4167 25.7594C33.8322 26.8884 34.0417 28.1087 34.0417 29.3853C34.0417 30.8137 33.7638 32.1781 33.2166 33.4393C32.672 34.6946 31.9273 35.8006 31.003 36.7233C30.0754 37.6486 28.9673 38.3922 27.7087 38.9328C26.4416 39.4794 25.0736 39.7549 23.6432 39.7549Z" fill="black"/>
<path fill-rule="evenodd" clip-rule="evenodd" d="M39.4473 38.7444L62.7571 38.7316H39.4609V19.9836L56.4874 19.9691H39.4609V1.22289L62.7571 1.2084H39.4473V38.7444ZM63.772 39.7566H38.4341V0.197021H63.772V2.23427H40.475V18.9595H57.5006V20.995H40.475V37.7211H63.772V39.7566Z" fill="black"/>
<path fill-rule="evenodd" clip-rule="evenodd" d="M69.6234 38.7444L93.0974 38.7316H69.6371L69.6234 1.2084V38.7444ZM94.1097 39.7566H68.6094V0.197021H70.6494V37.7211H94.1097V39.7566Z" fill="black"/>
<path fill-rule="evenodd" clip-rule="evenodd" d="M99.5132 38.7444L122.986 38.7316H99.5269L99.5132 1.2084V38.7444ZM124 39.7566H98.5V0.197021H100.54V37.7211H124V39.7566Z" fill="black"/>
<path fill-rule="evenodd" clip-rule="evenodd" d="M135.483 24.7821H154.469L144.977 3.25332L135.483 24.7821ZM161.739 38.7444H161.766L145.183 1.2084L156.023 25.7935H133.93L144.77 1.2084H144.712L128.185 38.7444H128.214L133.943 25.86H156.01L161.739 38.7444ZM163.322 39.7557H161.079L155.349 26.8705H134.603L128.874 39.7557H126.632L144.05 0.197876H145.848L145.981 0.499752L163.322 39.7557Z" fill="black"/>
</svg>
