<svg xmlns="http://www.w3.org/2000/svg" width="75.697" height="22.514" viewBox="0 0 75.697 22.514"><g transform="translate(-114.782 -209.593)"><path d="M146.126,224.064a7.922,7.922,0,0,1-.009-6.445,4.853,4.853,0,0,1,1.952-2.1,5.915,5.915,0,0,1,3-.731v-5.194H114.782v22.514h36.285v-5.194a5.822,5.822,0,0,1-2.982-.739A4.942,4.942,0,0,1,146.126,224.064Zm-17.912,1.2a3.61,3.61,0,0,1-1.628,1.22,6.635,6.635,0,0,1-2.508.432,8.626,8.626,0,0,1-2.551-.365,5.879,5.879,0,0,1-2.019-1.047l.732-1.561a6.231,6.231,0,0,0,1.8.955,6.548,6.548,0,0,0,2.052.308,3.523,3.523,0,0,0,1.9-.432,1.365,1.365,0,0,0,.673-1.213,1.122,1.122,0,0,0-.623-1.022,7.835,7.835,0,0,0-2.052-.673,8.517,8.517,0,0,1-3.239-1.246,2.617,2.617,0,0,1-1.014-2.226,3.192,3.192,0,0,1,.565-1.86,3.776,3.776,0,0,1,1.6-1.279,5.821,5.821,0,0,1,2.4-.465,7.437,7.437,0,0,1,2.367.374,4.944,4.944,0,0,1,1.834,1.039l-.714,1.561a5.453,5.453,0,0,0-3.488-1.262,3.076,3.076,0,0,0-1.811.473,1.5,1.5,0,0,0-.664,1.288,1.176,1.176,0,0,0,.589,1.063,6.973,6.973,0,0,0,2.018.681,14.344,14.344,0,0,1,2.409.755,3.583,3.583,0,0,1,1.428,1.047,2.528,2.528,0,0,1,.5,1.6A3.094,3.094,0,0,1,128.214,225.261Zm13.81.789a8.119,8.119,0,0,1-1.96.631,11.767,11.767,0,0,1-2.341.233,6.54,6.54,0,0,1-3.173-.731,4.937,4.937,0,0,1-2.06-2.093,6.93,6.93,0,0,1-.714-3.256,6.854,6.854,0,0,1,.714-3.222,4.977,4.977,0,0,1,2.035-2.093,6.3,6.3,0,0,1,3.1-.731,7.273,7.273,0,0,1,2.333.365,5.066,5.066,0,0,1,1.82,1.03l-.732,1.562a5.867,5.867,0,0,0-1.627-.931,5.2,5.2,0,0,0-1.744-.282,3.44,3.44,0,0,0-2.766,1.1,4.8,4.8,0,0,0-.938,3.205,4.865,4.865,0,0,0,.962,3.281,3.608,3.608,0,0,0,2.874,1.1,8.474,8.474,0,0,0,2.293-.316v-2.989h-2.559v-1.545h4.485Zm9.043-9.551h0a3.122,3.122,0,0,0-2.557,1.113,4.961,4.961,0,0,0-.914,3.222,5.033,5.033,0,0,0,.914,3.24,3.1,3.1,0,0,0,2.557,1.13h0a3.1,3.1,0,0,0,2.558-1.13,5.033,5.033,0,0,0,.914-3.24,4.961,4.961,0,0,0-.914-3.222A3.123,3.123,0,0,0,151.066,216.5Z" transform="translate(0 0)"/><path d="M189.232,230.728V218.907h7.48v1.146h-6.1v4.1h5.763V225.3h-5.763v5.428Z" transform="translate(-30.492 -3.815)"/><path d="M213.49,230.728l-1.326-3.038H205.84l-1.343,3.038h-1.445l5.321-11.821H209.6l5.321,11.821Zm-7.157-4.167h5.338L209,220.484Z" transform="translate(-36.152 -3.815)"/><path d="M236.124,225.672a3.211,3.211,0,0,1-.476,4.217,4.673,4.673,0,0,1-2.975.838h-5.032V218.907H232.5a4.572,4.572,0,0,1,2.881.805A2.732,2.732,0,0,1,236.412,222a2.7,2.7,0,0,1-.5,1.635,2.935,2.935,0,0,1-1.4,1.021A2.964,2.964,0,0,1,236.124,225.672Zm-7.106-1.519h3.264a3.359,3.359,0,0,0,2.057-.531,1.841,1.841,0,0,0,.7-1.561q0-2.025-2.754-2.026h-3.264Zm5.636,4.922a1.9,1.9,0,0,0,.671-1.6q0-2.174-2.771-2.174h-3.536v4.3h3.536A3.415,3.415,0,0,0,234.654,229.076Z" transform="translate(-46.223 -3.815)"/></g></svg>